<mxfile host="app.diagrams.net" agent="Mozilla/5.0 (Windows NT 10.0; Win64; x64) AppleWebKit/537.36 (KHTML, like Gecko) Chrome/132.0.0.0 Safari/537.36" version="26.0.13">
  <diagram id="DIAGRAM111111111xx01" name="Page-1">
    <mxGraphModel dx="1900" dy="530" grid="1" gridSize="10" guides="1" tooltips="1" connect="1" arrows="1" fold="1" page="1" pageScale="1" pageWidth="850" pageHeight="1100" math="0" shadow="0">
      <root>
        <mxCell id="0" />
        <mxCell id="1" parent="0" />
        <UserObject label="" plantUmlData="{&#xa;  &quot;data&quot;: &quot;@startuml\n\n&amp;apos; Définition des entités principales\n\ntitle Notification Service - Diagramme UML\n\n&amp;apos; Classe d&amp;apos;audit générique\nabstract class DateAudit {\n  +Date createdAt\n  +Date updatedAt\n}\n\nentity Notification {\n  +Long id\n  +Long recipientId\n  +String message\n  +NotificationType type\n  +NotificationStatus status\n  +NotificationTemplate template\n}\n\nenum NotificationType {\n  EMAIL\n  SMS\n  PUSH\n}\n\nenum NotificationStatus {\n  PENDING\n  SENT\n  FAIL\n}\n\nentity NotificationTemplate {\n  +Long id\n  +String name\n  +String subject\n  +String templateBody\n  +NotificationType type\n}\n\n&amp;apos; DTO utilisé pour l&amp;apos;envoi des notifications\nclass NotificationDTO {\n  +Long recipientId\n  +String message\n  +NotificationType type\n  +Long templateId\n}\n\n&amp;apos; Mapper pour convertir un DTO en Entité\nclass NotificationMapper {\n  +Notification toEntity(NotificationDTO dto)\n  +NotificationDTO toDto(Notification notification)\n}\n\n&amp;apos; Interface de service\ninterface NotificationService {\n  +void sendNotification(NotificationDTO notificationDTO)\n  +List&amp;lt;Notification&amp;gt; getUserNotifications(Long recipientId)\n  +void markAsSent(Long notificationId)\n  +void createTemplate(NotificationTemplate template)\n}\n\n&amp;apos; Implémentation du service\nclass NotificationServiceImpl {\n  +void sendNotification(NotificationDTO notificationDTO)\n  +List&amp;lt;Notification&amp;gt; getUserNotifications(Long recipientId)\n  +void markAsSent(Long notificationId)\n  +void createTemplate(NotificationTemplate template)\n}\n\n&amp;apos; Repository pour l&amp;apos;accès aux données\nclass NotificationRepository {\n  +Optional&amp;lt;Notification&amp;gt; findById(Long id)\n  +List&amp;lt;Notification&amp;gt; findByRecipientId(Long recipientId)\n  +void save(Notification notification)\n}\n\n&amp;apos; Client abstrait pour gérer l&amp;apos;envoi de notifications (Email, SMS, Push)\ninterface NotificationClient {\n  +void send(Notification notification)\n}\n\n\n&amp;apos; Feign Client pour la communication avec d&amp;apos;autres services\nclass UserFeignClient {\n  +UserDTO getUserById(Long recipientId)\n}\n\n&amp;apos; Relations entre les classes\nNotificationServiceImpl ..|&amp;gt; NotificationService\nNotificationServiceImpl ..&amp;gt; NotificationRepository : &amp;quot;Utilise&amp;quot;\nNotificationServiceImpl ..&amp;gt; NotificationClient : &amp;quot;Délègue l&amp;apos;envoi via abstraction&amp;quot;\nNotificationServiceImpl ..&amp;gt; UserFeignClient : &amp;quot;Récupère utilisateur via FeignClient&amp;quot;\n\n&amp;apos; Héritage de DateAudit\nNotification --|&amp;gt; DateAudit\nNotificationTemplate --|&amp;gt; DateAudit\n\n&amp;apos; Lien entre Notification et NotificationTemplate\nNotification &amp;quot;1&amp;quot; --&amp;gt; &amp;quot;0..1&amp;quot; NotificationTemplate : &amp;quot;Utilise un template&amp;quot;\n\n&amp;apos; Ajout du lien entre NotificationDTO et Notification via le Mapper\nNotificationDTO ..&amp;gt; NotificationMapper : &amp;quot;Converti en&amp;quot;\nNotification ..&amp;gt; NotificationMapper : &amp;quot;Converti en&amp;quot;\nNotificationMapper ..&amp;gt; Notification : &amp;quot;Crée une instance de&amp;quot;\n\n&amp;apos; Lien entre Notification et Enums\nNotification --&amp;gt; NotificationType : &amp;quot;Définit le type de la notification&amp;quot;\nNotification --&amp;gt; NotificationStatus : &amp;quot;Définit le statut de la notification&amp;quot;\nNotificationTemplate --&amp;gt; NotificationType : &amp;quot;Définit le type de template&amp;quot;\n@enduml&quot;,&#xa;  &quot;format&quot;: &quot;svg&quot;&#xa;}" id="USEROBJECT111111xx01-1">
          <mxCell style="shape=image;noLabel=1;verticalAlign=top;aspect=fixed;imageAspect=0;image=data:image/svg+xml,PHN2ZyB4bWxucz0iaHR0cDovL3d3dy53My5vcmcvMjAwMC9zdmciIHhtbG5zOnhsaW5rPSJodHRwOi8vd3d3LnczLm9yZy8xOTk5L3hsaW5rIiBjb250ZW50U3R5bGVUeXBlPSJ0ZXh0L2NzcyIgZGF0YS1kaWFncmFtLXR5cGU9IkNMQVNTIiBoZWlnaHQ9IjU5OXB4IiBwcmVzZXJ2ZUFzcGVjdFJhdGlvPSJub25lIiBzdHlsZT0id2lkdGg6MjQxMnB4O2hlaWdodDo1OTlweDtiYWNrZ3JvdW5kOiNGRkZGRkY7IiB2ZXJzaW9uPSIxLjEiIHZpZXdCb3g9IjAgMCAyNDEyIDU5OSIgd2lkdGg9IjI0MTJweCIgem9vbUFuZFBhbj0ibWFnbmlmeSI+PHRpdGxlPk5vdGlmaWNhdGlvbiBTZXJ2aWNlIC0gRGlhZ3JhbW1lIFVNTDwvdGl0bGU+PGRlZnMvPjxnPjx0ZXh0IGZpbGw9IiMwMDAwMDAiIGZvbnQtZmFtaWx5PSJzYW5zLXNlcmlmIiBmb250LXNpemU9IjE0IiBmb250LXdlaWdodD0iYm9sZCIgbGVuZ3RoQWRqdXN0PSJzcGFjaW5nIiB0ZXh0TGVuZ3RoPSIyNTMuNjEzMyIgeD0iMTA3Mi42ODYiIHk9IjI0LjUzMzIiPk5vdGlmaWNhdGlvbiBTZXJ2aWNlIC0gRGlhZ3JhbW1lIFVNTDwvdGV4dD48IS0tY2xhc3MgRGF0ZUF1ZGl0LS0+PGcgaWQ9ImVsZW1fRGF0ZUF1ZGl0Ij48cmVjdCBjb2RlTGluZT0iNyIgZmlsbD0iI0YxRjFGMSIgaGVpZ2h0PSI4My4yMTg4IiBpZD0iRGF0ZUF1ZGl0IiByeD0iMi41IiByeT0iMi41IiBzdHlsZT0ic3Ryb2tlOiMxODE4MTg7c3Ryb2tlLXdpZHRoOjAuNTsiIHdpZHRoPSIxMjMuMjk1OSIgeD0iNyIgeT0iNTAwLjYwOTQiLz48ZWxsaXBzZSBjeD0iMzUuNDE2MSIgY3k9IjUxNi42MDk0IiBmaWxsPSIjQTlEQ0RGIiByeD0iMTEiIHJ5PSIxMSIgc3R5bGU9InN0cm9rZTojMTgxODE4O3N0cm9rZS13aWR0aDoxOyIvPjxwYXRoIGQ9Ik0zNy42MDM2LDUxOC4zNzUgTDMzLjQ2MjksNTE4LjM3NSBMMzMuMDQxMSw1MTkuNDA2MyBMMzMuNDYyOSw1MTkuNDA2MyBRMzQuMDcyMyw1MTkuNDA2MyAzNC4zMzc5LDUxOS42NDA2IFEzNC42MDM2LDUxOS44NzUgMzQuNjAzNiw1MjAuMjY1NiBRMzQuNjAzNiw1MjAuNjQwNiAzNC4zMzc5LDUyMC44NzUgUTM0LjA3MjMsNTIxLjEwOTQgMzMuNDYyOSw1MjEuMTA5NCBMMzEuMTY2MSw1MjEuMTA5NCBRMzAuNTU2Nyw1MjEuMTA5NCAzMC4zMDY3LDUyMC44NzUgUTMwLjA0MTEsNTIwLjY0MDYgMzAuMDQxMSw1MjAuMjUgUTMwLjA0MTEsNTE5Ljg3NSAzMC4zMjIzLDUxOS42NDA2IFEzMC41ODc5LDUxOS4zOTA2IDMxLjIxMjksNTE5LjQwNjMgTDMzLjg4NDgsNTEyLjc1IEwzMi43NzU0LDUxMi43NSBRMzIuMTY2MSw1MTIuNzUgMzEuOTAwNCw1MTIuNTE1NiBRMzEuNjM0OCw1MTIuMjgxMyAzMS42MzQ4LDUxMS44OTA2IFEzMS42MzQ4LDUxMS41MTU2IDMxLjkwMDQsNTExLjI4MTMgUTMyLjE2NjEsNTExLjA0NjkgMzIuNzc1NCw1MTEuMDQ2OSBMMzYuNDQ3Myw1MTEuMDQ2OSBMMzkuODM3OSw1MTkuNDA2MyBRNDAuNDMxNyw1MTkuNDA2MyA0MC42MTkyLDUxOS41NDY5IFE0MS4wMDk4LDUxOS44MTI1IDQxLjAwOTgsNTIwLjI2NTYgUTQxLjAwOTgsNTIwLjY0MDYgNDAuNzQ0Miw1MjAuODc1IFE0MC40OTQyLDUyMS4xMDk0IDM5Ljg4NDgsNTIxLjEwOTQgTDM3LjU4NzksNTIxLjEwOTQgUTM2Ljk3ODYsNTIxLjEwOTQgMzYuNzEyOSw1MjAuODc1IFEzNi40NDczLDUyMC42NDA2IDM2LjQ0NzMsNTIwLjI1IFEzNi40NDczLDUxOS44NzUgMzYuNzEyOSw1MTkuNjQwNiBRMzYuOTc4Niw1MTkuNDA2MyAzNy41ODc5LDUxOS40MDYzIEwzOC4wMDk4LDUxOS40MDYzIEwzNy42MDM2LDUxOC4zNzUgWiBNMzYuODg0OCw1MTYuNjcxOSBMMzUuNTI1NCw1MTMuMjk2OSBMMzQuMTUwNCw1MTYuNjcxOSBMMzYuODg0OCw1MTYuNjcxOSBaICIgZmlsbD0iIzAwMDAwMCIvPjx0ZXh0IGZpbGw9IiMwMDAwMDAiIGZvbnQtZmFtaWx5PSJzYW5zLXNlcmlmIiBmb250LXNpemU9IjE0IiBmb250LXN0eWxlPSJpdGFsaWMiIGxlbmd0aEFkanVzdD0ic3BhY2luZyIgdGV4dExlbmd0aD0iNjEuNDgyNCIgeD0iNTIuMzk3NCIgeT0iNTIyLjMzNzkiPkRhdGVBdWRpdDwvdGV4dD48bGluZSBzdHlsZT0ic3Ryb2tlOiMxODE4MTg7c3Ryb2tlLXdpZHRoOjAuNTsiIHgxPSI4IiB4Mj0iMTI5LjI5NTkiIHkxPSI1MzIuNjA5NCIgeTI9IjUzMi42MDk0Ii8+PGVsbGlwc2UgY3g9IjE4IiBjeT0iNTQ2LjkxNDEiIGZpbGw9InRyYW5zcGFyZW50IiByeD0iMyIgcnk9IjMiIHN0eWxlPSJzdHJva2U6IzAzODA0ODtzdHJva2Utd2lkdGg6MTsiLz48dGV4dCBmaWxsPSIjMDAwMDAwIiBmb250LWZhbWlseT0ic2Fucy1zZXJpZiIgZm9udC1zaXplPSIxNCIgbGVuZ3RoQWRqdXN0PSJzcGFjaW5nIiB0ZXh0TGVuZ3RoPSI5My4zODU3IiB4PSIyNyIgeT0iNTUxLjE0MjYiPkRhdGUgY3JlYXRlZEF0PC90ZXh0PjxlbGxpcHNlIGN4PSIxOCIgY3k9IjU2NC41MjM0IiBmaWxsPSJ0cmFuc3BhcmVudCIgcng9IjMiIHJ5PSIzIiBzdHlsZT0ic3Ryb2tlOiMwMzgwNDg7c3Ryb2tlLXdpZHRoOjE7Ii8+PHRleHQgZmlsbD0iIzAwMDAwMCIgZm9udC1mYW1pbHk9InNhbnMtc2VyaWYiIGZvbnQtc2l6ZT0iMTQiIGxlbmd0aEFkanVzdD0ic3BhY2luZyIgdGV4dExlbmd0aD0iOTcuMjk1OSIgeD0iMjciIHk9IjU2OC43NTIiPkRhdGUgdXBkYXRlZEF0PC90ZXh0PjxsaW5lIHN0eWxlPSJzdHJva2U6IzE4MTgxODtzdHJva2Utd2lkdGg6MC41OyIgeDE9IjgiIHgyPSIxMjkuMjk1OSIgeTE9IjU3NS44MjgxIiB5Mj0iNTc1LjgyODEiLz48L2c+PCEtLWNsYXNzIE5vdGlmaWNhdGlvbi0tPjxnIGlkPSJlbGVtX05vdGlmaWNhdGlvbiI+PHJlY3QgY29kZUxpbmU9IjEyIiBmaWxsPSIjRjFGMUYxIiBoZWlnaHQ9IjE1My42NTYzIiBpZD0iTm90aWZpY2F0aW9uIiByeD0iMi41IiByeT0iMi41IiBzdHlsZT0ic3Ryb2tlOiMxODE4MTg7c3Ryb2tlLXdpZHRoOjAuNTsiIHdpZHRoPSIyMTEuMTk5MiIgeD0iMjc1IiB5PSI0NS42MDk0Ii8+PGVsbGlwc2UgY3g9IjM0MS43MjIyIiBjeT0iNjEuNjA5NCIgZmlsbD0iI0FERDFCMiIgcng9IjExIiByeT0iMTEiIHN0eWxlPSJzdHJva2U6IzE4MTgxODtzdHJva2Utd2lkdGg6MTsiLz48cGF0aCBkPSJNMzQwLjU4MTUsNjIuNDA2MyBMMzQwLjU4MTUsNjQuOTA2MyBMMzQ0LjkwOTcsNjQuOTA2MyBMMzQ0LjkwOTcsNjMuOTg0NCBRMzQ0LjkwOTcsNjMuMzc1IDM0NS4xNDQsNjMuMTA5NCBRMzQ1LjM5NCw2Mi44NDM4IDM0NS43NjksNjIuODQzOCBRMzQ2LjE0NCw2Mi44NDM4IDM0Ni4zNzg0LDYzLjEwOTQgUTM0Ni42MTI4LDYzLjM3NSAzNDYuNjEyOCw2My45ODQ0IEwzNDYuNjEyOCw2Ni42MDk0IEwzMzguNjEyOCw2Ni42MDk0IFEzMzcuOTg3OCw2Ni42MDk0IDMzNy43MjIyLDY2LjM3NSBRMzM3LjQ3MjIsNjYuMTQwNiAzMzcuNDcyMiw2NS43NSBRMzM3LjQ3MjIsNjUuMzc1IDMzNy43Mzc4LDY1LjE0MDYgUTMzOC4wMDM0LDY0LjkwNjMgMzM4LjYxMjgsNjQuOTA2MyBMMzM4Ljg3ODQsNjQuOTA2MyBMMzM4Ljg3ODQsNTguMjUgTDMzOC42MTI4LDU4LjI1IFEzMzcuOTg3OCw1OC4yNSAzMzcuNzIyMiw1OC4wMTU2IFEzMzcuNDcyMiw1Ny43ODEzIDMzNy40NzIyLDU3LjM5MDYgUTMzNy40NzIyLDU3LjAxNTYgMzM3LjcyMjIsNTYuNzgxMyBRMzM3Ljk4NzgsNTYuNTQ2OSAzMzguNjEyOCw1Ni41NDY5IEwzNDYuMjM3OCw1Ni41NDY5IEwzNDYuMjM3OCw1OS4xNDA2IFEzNDYuMjM3OCw1OS43NSAzNDYuMDAzNCw2MC4wMTU2IFEzNDUuNzg0Nyw2MC4yNjU2IDM0NS4zOTQsNjAuMjY1NiBRMzQ1LjAxOSw2MC4yNjU2IDM0NC43ODQ3LDYwLjAxNTYgUTM0NC41NTAzLDU5Ljc1IDM0NC41NTAzLDU5LjE0MDYgTDM0NC41NTAzLDU4LjI1IEwzNDAuNTgxNSw1OC4yNSBMMzQwLjU4MTUsNjAuNzAzMSBMMzQyLjA2NTksNjAuNzAzMSBRMzQyLjA2NTksNjAuMDQ2OSAzNDIuMTkwOSw1OS44NTk0IFEzNDIuNDU2NSw1OS40NTMxIDM0Mi45MjUzLDU5LjQ1MzEgUTM0My4zMDAzLDU5LjQ1MzEgMzQzLjUzNDcsNTkuNzE4OCBRMzQzLjc2OSw1OS45Njg4IDM0My43NjksNjAuNTc4MSBMMzQzLjc2OSw2Mi41NDY5IFEzNDMuNzY5LDYzLjA5MzggMzQzLjY0NCw2My4yODEzIFEzNDMuMzc4NCw2My42NzE5IDM0Mi45MjUzLDYzLjY3MTkgUTM0Mi40NTY1LDYzLjY3MTkgMzQyLjE5MDksNjMuMjY1NiBRMzQyLjA2NTksNjMuMDc4MSAzNDIuMDY1OSw2Mi40MDYzIEwzNDAuNTgxNSw2Mi40MDYzIFogIiBmaWxsPSIjMDAwMDAwIi8+PHRleHQgZmlsbD0iIzAwMDAwMCIgZm9udC1mYW1pbHk9InNhbnMtc2VyaWYiIGZvbnQtc2l6ZT0iMTQiIGxlbmd0aEFkanVzdD0ic3BhY2luZyIgdGV4dExlbmd0aD0iNjkuMjU0OSIgeD0iMzYyLjIyMjIiIHk9IjY3LjMzNzkiPk5vdGlmaWNhdGlvbjwvdGV4dD48bGluZSBzdHlsZT0ic3Ryb2tlOiMxODE4MTg7c3Ryb2tlLXdpZHRoOjAuNTsiIHgxPSIyNzYiIHgyPSI0ODUuMTk5MiIgeTE9Ijc3LjYwOTQiIHkyPSI3Ny42MDk0Ii8+PGVsbGlwc2UgY3g9IjI4NiIgY3k9IjkxLjkxNDEiIGZpbGw9InRyYW5zcGFyZW50IiByeD0iMyIgcnk9IjMiIHN0eWxlPSJzdHJva2U6IzAzODA0ODtzdHJva2Utd2lkdGg6MTsiLz48dGV4dCBmaWxsPSIjMDAwMDAwIiBmb250LWZhbWlseT0ic2Fucy1zZXJpZiIgZm9udC1zaXplPSIxNCIgbGVuZ3RoQWRqdXN0PSJzcGFjaW5nIiB0ZXh0TGVuZ3RoPSI0NS45MzA3IiB4PSIyOTUiIHk9Ijk2LjE0MjYiPkxvbmcgaWQ8L3RleHQ+PGVsbGlwc2UgY3g9IjI4NiIgY3k9IjEwOS41MjM0IiBmaWxsPSJ0cmFuc3BhcmVudCIgcng9IjMiIHJ5PSIzIiBzdHlsZT0ic3Ryb2tlOiMwMzgwNDg7c3Ryb2tlLXdpZHRoOjE7Ii8+PHRleHQgZmlsbD0iIzAwMDAwMCIgZm9udC1mYW1pbHk9InNhbnMtc2VyaWYiIGZvbnQtc2l6ZT0iMTQiIGxlbmd0aEFkanVzdD0ic3BhY2luZyIgdGV4dExlbmd0aD0iOTkuNjI3IiB4PSIyOTUiIHk9IjExMy43NTIiPkxvbmcgcmVjaXBpZW50SWQ8L3RleHQ+PGVsbGlwc2UgY3g9IjI4NiIgY3k9IjEyNy4xMzI4IiBmaWxsPSJ0cmFuc3BhcmVudCIgcng9IjMiIHJ5PSIzIiBzdHlsZT0ic3Ryb2tlOiMwMzgwNDg7c3Ryb2tlLXdpZHRoOjE7Ii8+PHRleHQgZmlsbD0iIzAwMDAwMCIgZm9udC1mYW1pbHk9InNhbnMtc2VyaWYiIGZvbnQtc2l6ZT0iMTQiIGxlbmd0aEFkanVzdD0ic3BhY2luZyIgdGV4dExlbmd0aD0iOTcuMjY4NiIgeD0iMjk1IiB5PSIxMzEuMzYxMyI+U3RyaW5nIG1lc3NhZ2U8L3RleHQ+PGVsbGlwc2UgY3g9IjI4NiIgY3k9IjE0NC43NDIyIiBmaWxsPSJ0cmFuc3BhcmVudCIgcng9IjMiIHJ5PSIzIiBzdHlsZT0ic3Ryb2tlOiMwMzgwNDg7c3Ryb2tlLXdpZHRoOjE7Ii8+PHRleHQgZmlsbD0iIzAwMDAwMCIgZm9udC1mYW1pbHk9InNhbnMtc2VyaWYiIGZvbnQtc2l6ZT0iMTQiIGxlbmd0aEFkanVzdD0ic3BhY2luZyIgdGV4dExlbmd0aD0iMTMwLjczMDUiIHg9IjI5NSIgeT0iMTQ4Ljk3MDciPk5vdGlmaWNhdGlvblR5cGUgdHlwZTwvdGV4dD48ZWxsaXBzZSBjeD0iMjg2IiBjeT0iMTYyLjM1MTYiIGZpbGw9InRyYW5zcGFyZW50IiByeD0iMyIgcnk9IjMiIHN0eWxlPSJzdHJva2U6IzAzODA0ODtzdHJva2Utd2lkdGg6MTsiLz48dGV4dCBmaWxsPSIjMDAwMDAwIiBmb250LWZhbWlseT0ic2Fucy1zZXJpZiIgZm9udC1zaXplPSIxNCIgbGVuZ3RoQWRqdXN0PSJzcGFjaW5nIiB0ZXh0TGVuZ3RoPSIxNTAuMTg1NSIgeD0iMjk1IiB5PSIxNjYuNTgwMSI+Tm90aWZpY2F0aW9uU3RhdHVzIHN0YXR1czwvdGV4dD48ZWxsaXBzZSBjeD0iMjg2IiBjeT0iMTc5Ljk2MDkiIGZpbGw9InRyYW5zcGFyZW50IiByeD0iMyIgcnk9IjMiIHN0eWxlPSJzdHJva2U6IzAzODA0ODtzdHJva2Utd2lkdGg6MTsiLz48dGV4dCBmaWxsPSIjMDAwMDAwIiBmb250LWZhbWlseT0ic2Fucy1zZXJpZiIgZm9udC1zaXplPSIxNCIgbGVuZ3RoQWRqdXN0PSJzcGFjaW5nIiB0ZXh0TGVuZ3RoPSIxODUuMTk5MiIgeD0iMjk1IiB5PSIxODQuMTg5NSI+Tm90aWZpY2F0aW9uVGVtcGxhdGUgdGVtcGxhdGU8L3RleHQ+PGxpbmUgc3R5bGU9InN0cm9rZTojMTgxODE4O3N0cm9rZS13aWR0aDowLjU7IiB4MT0iMjc2IiB4Mj0iNDg1LjE5OTIiIHkxPSIxOTEuMjY1NiIgeTI9IjE5MS4yNjU2Ii8+PC9nPjwhLS1jbGFzcyBOb3RpZmljYXRpb25UeXBlLS0+PGcgaWQ9ImVsZW1fTm90aWZpY2F0aW9uVHlwZSI+PHJlY3QgY29kZUxpbmU9IjIxIiBmaWxsPSIjRjFGMUYxIiBoZWlnaHQ9IjEwMC44MjgxIiBpZD0iTm90aWZpY2F0aW9uVHlwZSIgcng9IjIuNSIgcnk9IjIuNSIgc3R5bGU9InN0cm9rZTojMTgxODE4O3N0cm9rZS13aWR0aDowLjU7IiB3aWR0aD0iMTMyLjM3ODkiIHg9IjIxMi41IiB5PSI0OTEuNjA5NCIvPjxlbGxpcHNlIGN4PSIyMjcuNSIgY3k9IjUwNy42MDk0IiBmaWxsPSIjRUI5MzdGIiByeD0iMTEiIHJ5PSIxMSIgc3R5bGU9InN0cm9rZTojMTgxODE4O3N0cm9rZS13aWR0aDoxOyIvPjxwYXRoIGQ9Ik0yMjYuMzU5NCw1MDguNDA2MyBMMjI2LjM1OTQsNTEwLjkwNjMgTDIzMC42ODc1LDUxMC45MDYzIEwyMzAuNjg3NSw1MDkuOTg0NCBRMjMwLjY4NzUsNTA5LjM3NSAyMzAuOTIxOSw1MDkuMTA5NCBRMjMxLjE3MTksNTA4Ljg0MzggMjMxLjU0NjksNTA4Ljg0MzggUTIzMS45MjE5LDUwOC44NDM4IDIzMi4xNTYzLDUwOS4xMDk0IFEyMzIuMzkwNiw1MDkuMzc1IDIzMi4zOTA2LDUwOS45ODQ0IEwyMzIuMzkwNiw1MTIuNjA5NCBMMjI0LjM5MDYsNTEyLjYwOTQgUTIyMy43NjU2LDUxMi42MDk0IDIyMy41LDUxMi4zNzUgUTIyMy4yNSw1MTIuMTQwNiAyMjMuMjUsNTExLjc1IFEyMjMuMjUsNTExLjM3NSAyMjMuNTE1Niw1MTEuMTQwNiBRMjIzLjc4MTMsNTEwLjkwNjMgMjI0LjM5MDYsNTEwLjkwNjMgTDIyNC42NTYzLDUxMC45MDYzIEwyMjQuNjU2Myw1MDQuMjUgTDIyNC4zOTA2LDUwNC4yNSBRMjIzLjc2NTYsNTA0LjI1IDIyMy41LDUwNC4wMTU2IFEyMjMuMjUsNTAzLjc4MTMgMjIzLjI1LDUwMy4zOTA2IFEyMjMuMjUsNTAzLjAxNTYgMjIzLjUsNTAyLjc4MTMgUTIyMy43NjU2LDUwMi41NDY5IDIyNC4zOTA2LDUwMi41NDY5IEwyMzIuMDE1Niw1MDIuNTQ2OSBMMjMyLjAxNTYsNTA1LjE0MDYgUTIzMi4wMTU2LDUwNS43NSAyMzEuNzgxMyw1MDYuMDE1NiBRMjMxLjU2MjUsNTA2LjI2NTYgMjMxLjE3MTksNTA2LjI2NTYgUTIzMC43OTY5LDUwNi4yNjU2IDIzMC41NjI1LDUwNi4wMTU2IFEyMzAuMzI4MSw1MDUuNzUgMjMwLjMyODEsNTA1LjE0MDYgTDIzMC4zMjgxLDUwNC4yNSBMMjI2LjM1OTQsNTA0LjI1IEwyMjYuMzU5NCw1MDYuNzAzMSBMMjI3Ljg0MzgsNTA2LjcwMzEgUTIyNy44NDM4LDUwNi4wNDY5IDIyNy45Njg4LDUwNS44NTk0IFEyMjguMjM0NCw1MDUuNDUzMSAyMjguNzAzMSw1MDUuNDUzMSBRMjI5LjA3ODEsNTA1LjQ1MzEgMjI5LjMxMjUsNTA1LjcxODggUTIyOS41NDY5LDUwNS45Njg4IDIyOS41NDY5LDUwNi41NzgxIEwyMjkuNTQ2OSw1MDguNTQ2OSBRMjI5LjU0NjksNTA5LjA5MzggMjI5LjQyMTksNTA5LjI4MTMgUTIyOS4xNTYzLDUwOS42NzE5IDIyOC43MDMxLDUwOS42NzE5IFEyMjguMjM0NCw1MDkuNjcxOSAyMjcuOTY4OCw1MDkuMjY1NiBRMjI3Ljg0MzgsNTA5LjA3ODEgMjI3Ljg0MzgsNTA4LjQwNjMgTDIyNi4zNTk0LDUwOC40MDYzIFogIiBmaWxsPSIjMDAwMDAwIi8+PHRleHQgZmlsbD0iIzAwMDAwMCIgZm9udC1mYW1pbHk9InNhbnMtc2VyaWYiIGZvbnQtc2l6ZT0iMTQiIGxlbmd0aEFkanVzdD0ic3BhY2luZyIgdGV4dExlbmd0aD0iMTAwLjM3ODkiIHg9IjI0MS41IiB5PSI1MTMuMzM3OSI+Tm90aWZpY2F0aW9uVHlwZTwvdGV4dD48bGluZSBzdHlsZT0ic3Ryb2tlOiMxODE4MTg7c3Ryb2tlLXdpZHRoOjAuNTsiIHgxPSIyMTMuNSIgeDI9IjM0My44Nzg5IiB5MT0iNTIzLjYwOTQiIHkyPSI1MjMuNjA5NCIvPjx0ZXh0IGZpbGw9IiMwMDAwMDAiIGZvbnQtZmFtaWx5PSJzYW5zLXNlcmlmIiBmb250LXNpemU9IjE0IiBsZW5ndGhBZGp1c3Q9InNwYWNpbmciIHRleHRMZW5ndGg9IjQyLjAxMzciIHg9IjIxOC41IiB5PSI1NDIuMTQyNiI+RU1BSUw8L3RleHQ+PHRleHQgZmlsbD0iIzAwMDAwMCIgZm9udC1mYW1pbHk9InNhbnMtc2VyaWYiIGZvbnQtc2l6ZT0iMTQiIGxlbmd0aEFkanVzdD0ic3BhY2luZyIgdGV4dExlbmd0aD0iMzAuMzM3OSIgeD0iMjE4LjUiIHk9IjU1OS43NTIiPlNNUzwvdGV4dD48dGV4dCBmaWxsPSIjMDAwMDAwIiBmb250LWZhbWlseT0ic2Fucy1zZXJpZiIgZm9udC1zaXplPSIxNCIgbGVuZ3RoQWRqdXN0PSJzcGFjaW5nIiB0ZXh0TGVuZ3RoPSIzOC44OTY1IiB4PSIyMTguNSIgeT0iNTc3LjM2MTMiPlBVU0g8L3RleHQ+PGxpbmUgc3R5bGU9InN0cm9rZTojMTgxODE4O3N0cm9rZS13aWR0aDowLjU7IiB4MT0iMjEzLjUiIHgyPSIzNDMuODc4OSIgeTE9IjU4NC40Mzc1IiB5Mj0iNTg0LjQzNzUiLz48L2c+PCEtLWNsYXNzIE5vdGlmaWNhdGlvblN0YXR1cy0tPjxnIGlkPSJlbGVtX05vdGlmaWNhdGlvblN0YXR1cyI+PHJlY3QgY29kZUxpbmU9IjI3IiBmaWxsPSIjRjFGMUYxIiBoZWlnaHQ9IjEwMC44MjgxIiBpZD0iTm90aWZpY2F0aW9uU3RhdHVzIiByeD0iMi41IiByeT0iMi41IiBzdHlsZT0ic3Ryb2tlOiMxODE4MTg7c3Ryb2tlLXdpZHRoOjAuNTsiIHdpZHRoPSIxNDAuOTQ0MyIgeD0iNTQwIiB5PSIyOTUuMTA5NCIvPjxlbGxpcHNlIGN4PSI1NTUiIGN5PSIzMTEuMTA5NCIgZmlsbD0iI0VCOTM3RiIgcng9IjExIiByeT0iMTEiIHN0eWxlPSJzdHJva2U6IzE4MTgxODtzdHJva2Utd2lkdGg6MTsiLz48cGF0aCBkPSJNNTUzLjg1OTQsMzExLjkwNjMgTDU1My44NTk0LDMxNC40MDYzIEw1NTguMTg3NSwzMTQuNDA2MyBMNTU4LjE4NzUsMzEzLjQ4NDQgUTU1OC4xODc1LDMxMi44NzUgNTU4LjQyMTksMzEyLjYwOTQgUTU1OC42NzE5LDMxMi4zNDM4IDU1OS4wNDY5LDMxMi4zNDM4IFE1NTkuNDIxOSwzMTIuMzQzOCA1NTkuNjU2MywzMTIuNjA5NCBRNTU5Ljg5MDYsMzEyLjg3NSA1NTkuODkwNiwzMTMuNDg0NCBMNTU5Ljg5MDYsMzE2LjEwOTQgTDU1MS44OTA2LDMxNi4xMDk0IFE1NTEuMjY1NiwzMTYuMTA5NCA1NTEsMzE1Ljg3NSBRNTUwLjc1LDMxNS42NDA2IDU1MC43NSwzMTUuMjUgUTU1MC43NSwzMTQuODc1IDU1MS4wMTU2LDMxNC42NDA2IFE1NTEuMjgxMywzMTQuNDA2MyA1NTEuODkwNiwzMTQuNDA2MyBMNTUyLjE1NjMsMzE0LjQwNjMgTDU1Mi4xNTYzLDMwNy43NSBMNTUxLjg5MDYsMzA3Ljc1IFE1NTEuMjY1NiwzMDcuNzUgNTUxLDMwNy41MTU2IFE1NTAuNzUsMzA3LjI4MTMgNTUwLjc1LDMwNi44OTA2IFE1NTAuNzUsMzA2LjUxNTYgNTUxLDMwNi4yODEzIFE1NTEuMjY1NiwzMDYuMDQ2OSA1NTEuODkwNiwzMDYuMDQ2OSBMNTU5LjUxNTYsMzA2LjA0NjkgTDU1OS41MTU2LDMwOC42NDA2IFE1NTkuNTE1NiwzMDkuMjUgNTU5LjI4MTMsMzA5LjUxNTYgUTU1OS4wNjI1LDMwOS43NjU2IDU1OC42NzE5LDMwOS43NjU2IFE1NTguMjk2OSwzMDkuNzY1NiA1NTguMDYyNSwzMDkuNTE1NiBRNTU3LjgyODEsMzA5LjI1IDU1Ny44MjgxLDMwOC42NDA2IEw1NTcuODI4MSwzMDcuNzUgTDU1My44NTk0LDMwNy43NSBMNTUzLjg1OTQsMzEwLjIwMzEgTDU1NS4zNDM4LDMxMC4yMDMxIFE1NTUuMzQzOCwzMDkuNTQ2OSA1NTUuNDY4OCwzMDkuMzU5NCBRNTU1LjczNDQsMzA4Ljk1MzEgNTU2LjIwMzEsMzA4Ljk1MzEgUTU1Ni41NzgxLDMwOC45NTMxIDU1Ni44MTI1LDMwOS4yMTg4IFE1NTcuMDQ2OSwzMDkuNDY4OCA1NTcuMDQ2OSwzMTAuMDc4MSBMNTU3LjA0NjksMzEyLjA0NjkgUTU1Ny4wNDY5LDMxMi41OTM4IDU1Ni45MjE5LDMxMi43ODEzIFE1NTYuNjU2MywzMTMuMTcxOSA1NTYuMjAzMSwzMTMuMTcxOSBRNTU1LjczNDQsMzEzLjE3MTkgNTU1LjQ2ODgsMzEyLjc2NTYgUTU1NS4zNDM4LDMxMi41NzgxIDU1NS4zNDM4LDMxMS45MDYzIEw1NTMuODU5NCwzMTEuOTA2MyBaICIgZmlsbD0iIzAwMDAwMCIvPjx0ZXh0IGZpbGw9IiMwMDAwMDAiIGZvbnQtZmFtaWx5PSJzYW5zLXNlcmlmIiBmb250LXNpemU9IjE0IiBsZW5ndGhBZGp1c3Q9InNwYWNpbmciIHRleHRMZW5ndGg9IjEwOC45NDQzIiB4PSI1NjkiIHk9IjMxNi44Mzc5Ij5Ob3RpZmljYXRpb25TdGF0dXM8L3RleHQ+PGxpbmUgc3R5bGU9InN0cm9rZTojMTgxODE4O3N0cm9rZS13aWR0aDowLjU7IiB4MT0iNTQxIiB4Mj0iNjc5Ljk0NDMiIHkxPSIzMjcuMTA5NCIgeTI9IjMyNy4xMDk0Ii8+PHRleHQgZmlsbD0iIzAwMDAwMCIgZm9udC1mYW1pbHk9InNhbnMtc2VyaWYiIGZvbnQtc2l6ZT0iMTQiIGxlbmd0aEFkanVzdD0ic3BhY2luZyIgdGV4dExlbmd0aD0iNjMuNzg2MSIgeD0iNTQ2IiB5PSIzNDUuNjQyNiI+UEVORElORzwvdGV4dD48dGV4dCBmaWxsPSIjMDAwMDAwIiBmb250LWZhbWlseT0ic2Fucy1zZXJpZiIgZm9udC1zaXplPSIxNCIgbGVuZ3RoQWRqdXN0PSJzcGFjaW5nIiB0ZXh0TGVuZ3RoPSIzNy4zMzc5IiB4PSI1NDYiIHk9IjM2My4yNTIiPlNFTlQ8L3RleHQ+PHRleHQgZmlsbD0iIzAwMDAwMCIgZm9udC1mYW1pbHk9InNhbnMtc2VyaWYiIGZvbnQtc2l6ZT0iMTQiIGxlbmd0aEFkanVzdD0ic3BhY2luZyIgdGV4dExlbmd0aD0iMjkuNTY1NCIgeD0iNTQ2IiB5PSIzODAuODYxMyI+RkFJTDwvdGV4dD48bGluZSBzdHlsZT0ic3Ryb2tlOiMxODE4MTg7c3Ryb2tlLXdpZHRoOjAuNTsiIHgxPSI1NDEiIHgyPSI2NzkuOTQ0MyIgeTE9IjM4Ny45Mzc1IiB5Mj0iMzg3LjkzNzUiLz48L2c+PCEtLWNsYXNzIE5vdGlmaWNhdGlvblRlbXBsYXRlLS0+PGcgaWQ9ImVsZW1fTm90aWZpY2F0aW9uVGVtcGxhdGUiPjxyZWN0IGNvZGVMaW5lPSIzMyIgZmlsbD0iI0YxRjFGMSIgaGVpZ2h0PSIxMzYuMDQ2OSIgaWQ9Ik5vdGlmaWNhdGlvblRlbXBsYXRlIiByeD0iMi41IiByeT0iMi41IiBzdHlsZT0ic3Ryb2tlOiMxODE4MTg7c3Ryb2tlLXdpZHRoOjAuNTsiIHdpZHRoPSIxNTkuNjEzMyIgeD0iOTYuNSIgeT0iMjc3LjYwOTQiLz48ZWxsaXBzZSBjeD0iMTExLjUiIGN5PSIyOTMuNjA5NCIgZmlsbD0iI0FERDFCMiIgcng9IjExIiByeT0iMTEiIHN0eWxlPSJzdHJva2U6IzE4MTgxODtzdHJva2Utd2lkdGg6MTsiLz48cGF0aCBkPSJNMTEwLjM1OTQsMjk0LjQwNjMgTDExMC4zNTk0LDI5Ni45MDYzIEwxMTQuNjg3NSwyOTYuOTA2MyBMMTE0LjY4NzUsMjk1Ljk4NDQgUTExNC42ODc1LDI5NS4zNzUgMTE0LjkyMTksMjk1LjEwOTQgUTExNS4xNzE5LDI5NC44NDM4IDExNS41NDY5LDI5NC44NDM4IFExMTUuOTIxOSwyOTQuODQzOCAxMTYuMTU2MywyOTUuMTA5NCBRMTE2LjM5MDYsMjk1LjM3NSAxMTYuMzkwNiwyOTUuOTg0NCBMMTE2LjM5MDYsMjk4LjYwOTQgTDEwOC4zOTA2LDI5OC42MDk0IFExMDcuNzY1NiwyOTguNjA5NCAxMDcuNSwyOTguMzc1IFExMDcuMjUsMjk4LjE0MDYgMTA3LjI1LDI5Ny43NSBRMTA3LjI1LDI5Ny4zNzUgMTA3LjUxNTYsMjk3LjE0MDYgUTEwNy43ODEzLDI5Ni45MDYzIDEwOC4zOTA2LDI5Ni45MDYzIEwxMDguNjU2MywyOTYuOTA2MyBMMTA4LjY1NjMsMjkwLjI1IEwxMDguMzkwNiwyOTAuMjUgUTEwNy43NjU2LDI5MC4yNSAxMDcuNSwyOTAuMDE1NiBRMTA3LjI1LDI4OS43ODEzIDEwNy4yNSwyODkuMzkwNiBRMTA3LjI1LDI4OS4wMTU2IDEwNy41LDI4OC43ODEzIFExMDcuNzY1NiwyODguNTQ2OSAxMDguMzkwNiwyODguNTQ2OSBMMTE2LjAxNTYsMjg4LjU0NjkgTDExNi4wMTU2LDI5MS4xNDA2IFExMTYuMDE1NiwyOTEuNzUgMTE1Ljc4MTMsMjkyLjAxNTYgUTExNS41NjI1LDI5Mi4yNjU2IDExNS4xNzE5LDI5Mi4yNjU2IFExMTQuNzk2OSwyOTIuMjY1NiAxMTQuNTYyNSwyOTIuMDE1NiBRMTE0LjMyODEsMjkxLjc1IDExNC4zMjgxLDI5MS4xNDA2IEwxMTQuMzI4MSwyOTAuMjUgTDExMC4zNTk0LDI5MC4yNSBMMTEwLjM1OTQsMjkyLjcwMzEgTDExMS44NDM4LDI5Mi43MDMxIFExMTEuODQzOCwyOTIuMDQ2OSAxMTEuOTY4OCwyOTEuODU5NCBRMTEyLjIzNDQsMjkxLjQ1MzEgMTEyLjcwMzEsMjkxLjQ1MzEgUTExMy4wNzgxLDI5MS40NTMxIDExMy4zMTI1LDI5MS43MTg4IFExMTMuNTQ2OSwyOTEuOTY4OCAxMTMuNTQ2OSwyOTIuNTc4MSBMMTEzLjU0NjksMjk0LjU0NjkgUTExMy41NDY5LDI5NS4wOTM4IDExMy40MjE5LDI5NS4yODEzIFExMTMuMTU2MywyOTUuNjcxOSAxMTIuNzAzMSwyOTUuNjcxOSBRMTEyLjIzNDQsMjk1LjY3MTkgMTExLjk2ODgsMjk1LjI2NTYgUTExMS44NDM4LDI5NS4wNzgxIDExMS44NDM4LDI5NC40MDYzIEwxMTAuMzU5NCwyOTQuNDA2MyBaICIgZmlsbD0iIzAwMDAwMCIvPjx0ZXh0IGZpbGw9IiMwMDAwMDAiIGZvbnQtZmFtaWx5PSJzYW5zLXNlcmlmIiBmb250LXNpemU9IjE0IiBsZW5ndGhBZGp1c3Q9InNwYWNpbmciIHRleHRMZW5ndGg9IjEyNy42MTMzIiB4PSIxMjUuNSIgeT0iMjk5LjMzNzkiPk5vdGlmaWNhdGlvblRlbXBsYXRlPC90ZXh0PjxsaW5lIHN0eWxlPSJzdHJva2U6IzE4MTgxODtzdHJva2Utd2lkdGg6MC41OyIgeDE9Ijk3LjUiIHgyPSIyNTUuMTEzMyIgeTE9IjMwOS42MDk0IiB5Mj0iMzA5LjYwOTQiLz48ZWxsaXBzZSBjeD0iMTA3LjUiIGN5PSIzMjMuOTE0MSIgZmlsbD0idHJhbnNwYXJlbnQiIHJ4PSIzIiByeT0iMyIgc3R5bGU9InN0cm9rZTojMDM4MDQ4O3N0cm9rZS13aWR0aDoxOyIvPjx0ZXh0IGZpbGw9IiMwMDAwMDAiIGZvbnQtZmFtaWx5PSJzYW5zLXNlcmlmIiBmb250LXNpemU9IjE0IiBsZW5ndGhBZGp1c3Q9InNwYWNpbmciIHRleHRMZW5ndGg9IjQ1LjkzMDciIHg9IjExNi41IiB5PSIzMjguMTQyNiI+TG9uZyBpZDwvdGV4dD48ZWxsaXBzZSBjeD0iMTA3LjUiIGN5PSIzNDEuNTIzNCIgZmlsbD0idHJhbnNwYXJlbnQiIHJ4PSIzIiByeT0iMyIgc3R5bGU9InN0cm9rZTojMDM4MDQ4O3N0cm9rZS13aWR0aDoxOyIvPjx0ZXh0IGZpbGw9IiMwMDAwMDAiIGZvbnQtZmFtaWx5PSJzYW5zLXNlcmlmIiBmb250LXNpemU9IjE0IiBsZW5ndGhBZGp1c3Q9InNwYWNpbmciIHRleHRMZW5ndGg9Ijc1LjQ4MjQiIHg9IjExNi41IiB5PSIzNDUuNzUyIj5TdHJpbmcgbmFtZTwvdGV4dD48ZWxsaXBzZSBjeD0iMTA3LjUiIGN5PSIzNTkuMTMyOCIgZmlsbD0idHJhbnNwYXJlbnQiIHJ4PSIzIiByeT0iMyIgc3R5bGU9InN0cm9rZTojMDM4MDQ4O3N0cm9rZS13aWR0aDoxOyIvPjx0ZXh0IGZpbGw9IiMwMDAwMDAiIGZvbnQtZmFtaWx5PSJzYW5zLXNlcmlmIiBmb250LXNpemU9IjE0IiBsZW5ndGhBZGp1c3Q9InNwYWNpbmciIHRleHRMZW5ndGg9Ijg0LjgyMDMiIHg9IjExNi41IiB5PSIzNjMuMzYxMyI+U3RyaW5nIHN1YmplY3Q8L3RleHQ+PGVsbGlwc2UgY3g9IjEwNy41IiBjeT0iMzc2Ljc0MjIiIGZpbGw9InRyYW5zcGFyZW50IiByeD0iMyIgcnk9IjMiIHN0eWxlPSJzdHJva2U6IzAzODA0ODtzdHJva2Utd2lkdGg6MTsiLz48dGV4dCBmaWxsPSIjMDAwMDAwIiBmb250LWZhbWlseT0ic2Fucy1zZXJpZiIgZm9udC1zaXplPSIxNCIgbGVuZ3RoQWRqdXN0PSJzcGFjaW5nIiB0ZXh0TGVuZ3RoPSIxMjYuMDY4NCIgeD0iMTE2LjUiIHk9IjM4MC45NzA3Ij5TdHJpbmcgdGVtcGxhdGVCb2R5PC90ZXh0PjxlbGxpcHNlIGN4PSIxMDcuNSIgY3k9IjM5NC4zNTE2IiBmaWxsPSJ0cmFuc3BhcmVudCIgcng9IjMiIHJ5PSIzIiBzdHlsZT0ic3Ryb2tlOiMwMzgwNDg7c3Ryb2tlLXdpZHRoOjE7Ii8+PHRleHQgZmlsbD0iIzAwMDAwMCIgZm9udC1mYW1pbHk9InNhbnMtc2VyaWYiIGZvbnQtc2l6ZT0iMTQiIGxlbmd0aEFkanVzdD0ic3BhY2luZyIgdGV4dExlbmd0aD0iMTMwLjczMDUiIHg9IjExNi41IiB5PSIzOTguNTgwMSI+Tm90aWZpY2F0aW9uVHlwZSB0eXBlPC90ZXh0PjxsaW5lIHN0eWxlPSJzdHJva2U6IzE4MTgxODtzdHJva2Utd2lkdGg6MC41OyIgeDE9Ijk3LjUiIHgyPSIyNTUuMTEzMyIgeTE9IjQwNS42NTYzIiB5Mj0iNDA1LjY1NjMiLz48L2c+PCEtLWNsYXNzIE5vdGlmaWNhdGlvbkRUTy0tPjxnIGlkPSJlbGVtX05vdGlmaWNhdGlvbkRUTyI+PHJlY3QgY29kZUxpbmU9IjQyIiBmaWxsPSIjRjFGMUYxIiBoZWlnaHQ9IjExOC40Mzc1IiBpZD0iTm90aWZpY2F0aW9uRFRPIiByeD0iMi41IiByeT0iMi41IiBzdHlsZT0ic3Ryb2tlOiMxODE4MTg7c3Ryb2tlLXdpZHRoOjAuNTsiIHdpZHRoPSIxNTYuNzMwNSIgeD0iOTA2IiB5PSI2My42MDk0Ii8+PGVsbGlwc2UgY3g9IjkzMi42NjU3IiBjeT0iNzkuNjA5NCIgZmlsbD0iI0FERDFCMiIgcng9IjExIiByeT0iMTEiIHN0eWxlPSJzdHJva2U6IzE4MTgxODtzdHJva2Utd2lkdGg6MTsiLz48cGF0aCBkPSJNOTM1LjQzMTMsNzUuNDg0NCBROTM1LjU4NzYsNzUuMjY1NiA5MzUuNzc1MSw3NS4xNTYzIFE5MzUuOTYyNiw3NS4wNDY5IDkzNi4xODEzLDc1LjA0NjkgUTkzNi41NTYzLDc1LjA0NjkgOTM2Ljc5MDcsNzUuMzEyNSBROTM3LjAyNTEsNzUuNTYyNSA5MzcuMDI1MSw3Ni4xNzE5IEw5MzcuMDI1MSw3Ny42MjUgUTkzNy4wMjUxLDc4LjIzNDQgOTM2Ljc5MDcsNzguNSBROTM2LjU1NjMsNzguNzY1NiA5MzYuMTgxMyw3OC43NjU2IFE5MzUuODM3Niw3OC43NjU2IDkzNS42MzQ1LDc4LjU2MjUgUTkzNS40MzEzLDc4LjM3NSA5MzUuMzIyLDc3Ljg1OTQgUTkzNS4yNzUxLDc3LjUgOTM1LjA4NzYsNzcuMzEyNSBROTM0Ljc1OTUsNzYuOTM3NSA5MzQuMTUwMSw3Ni43MTg4IFE5MzMuNTQwNyw3Ni41IDkzMi45MTU3LDc2LjUgUTkzMi4xNTAxLDc2LjUgOTMxLjUwOTUsNzYuODI4MSBROTMwLjg4NDUsNzcuMTU2MyA5MzAuMzg0NSw3Ny45MDYzIFE5MjkuOTAwMSw3OC42NTYzIDkyOS45MDAxLDc5LjY4NzUgTDkyOS45MDAxLDgwLjc4MTMgUTkyOS45MDAxLDgyLjAxNTYgOTMwLjc5MDcsODIuODQzOCBROTMxLjY4MTMsODMuNjU2MyA5MzMuMjc1MSw4My42NTYzIFE5MzQuMjEyNiw4My42NTYzIDkzNC44Njg4LDgzLjQwNjMgUTkzNS4yNTk1LDgzLjI1IDkzNS42ODEzLDgyLjgxMjUgUTkzNS45NDcsODIuNTQ2OSA5MzYuMDg3Niw4Mi40Njg4IFE5MzYuMjQzOCw4Mi4zOTA2IDkzNi40NDcsODIuMzkwNiBROTM2Ljc3NTEsODIuMzkwNiA5MzcuMDI1MSw4Mi42NTYzIFE5MzcuMjkwNyw4Mi45MDYzIDkzNy4yOTA3LDgzLjI1IFE5MzcuMjkwNyw4My41OTM4IDkzNi45NDcsODQgUTkzNi40NDcsODQuNTc4MSA5MzUuNjUwMSw4NC45MDYzIFE5MzQuNTcyLDg1LjM1OTQgOTMzLjI3NTEsODUuMzU5NCBROTMxLjc1OTUsODUuMzU5NCA5MzAuNTU2Myw4NC43MzQ0IFE5MjkuNTcyLDg0LjIzNDQgOTI4Ljg4NDUsODMuMTcxOSBROTI4LjE5Nyw4Mi4wOTM4IDkyOC4xOTcsODAuODEyNSBMOTI4LjE5Nyw3OS42NTYzIFE5MjguMTk3LDc4LjMyODEgOTI4LjgwNjMsNzcuMTg3NSBROTI5LjQzMTMsNzYuMDMxMyA5MzAuNTI1MSw3NS40MjE5IFE5MzEuNjE4OCw3NC43OTY5IDkzMi44NTMyLDc0Ljc5NjkgUTkzMy41ODc2LDc0Ljc5NjkgOTM0LjIyODIsNzQuOTY4OCBROTM0Ljg4NDUsNzUuMTI1IDkzNS40MzEzLDc1LjQ4NDQgWiAiIGZpbGw9IiMwMDAwMDAiLz48dGV4dCBmaWxsPSIjMDAwMDAwIiBmb250LWZhbWlseT0ic2Fucy1zZXJpZiIgZm9udC1zaXplPSIxNCIgbGVuZ3RoQWRqdXN0PSJzcGFjaW5nIiB0ZXh0TGVuZ3RoPSI5OC44MDY2IiB4PSI5NDkuMjU4MSIgeT0iODUuMzM3OSI+Tm90aWZpY2F0aW9uRFRPPC90ZXh0PjxsaW5lIHN0eWxlPSJzdHJva2U6IzE4MTgxODtzdHJva2Utd2lkdGg6MC41OyIgeDE9IjkwNyIgeDI9IjEwNjEuNzMwNSIgeTE9Ijk1LjYwOTQiIHkyPSI5NS42MDk0Ii8+PGVsbGlwc2UgY3g9IjkxNyIgY3k9IjEwOS45MTQxIiBmaWxsPSJ0cmFuc3BhcmVudCIgcng9IjMiIHJ5PSIzIiBzdHlsZT0ic3Ryb2tlOiMwMzgwNDg7c3Ryb2tlLXdpZHRoOjE7Ii8+PHRleHQgZmlsbD0iIzAwMDAwMCIgZm9udC1mYW1pbHk9InNhbnMtc2VyaWYiIGZvbnQtc2l6ZT0iMTQiIGxlbmd0aEFkanVzdD0ic3BhY2luZyIgdGV4dExlbmd0aD0iOTkuNjI3IiB4PSI5MjYiIHk9IjExNC4xNDI2Ij5Mb25nIHJlY2lwaWVudElkPC90ZXh0PjxlbGxpcHNlIGN4PSI5MTciIGN5PSIxMjcuNTIzNCIgZmlsbD0idHJhbnNwYXJlbnQiIHJ4PSIzIiByeT0iMyIgc3R5bGU9InN0cm9rZTojMDM4MDQ4O3N0cm9rZS13aWR0aDoxOyIvPjx0ZXh0IGZpbGw9IiMwMDAwMDAiIGZvbnQtZmFtaWx5PSJzYW5zLXNlcmlmIiBmb250LXNpemU9IjE0IiBsZW5ndGhBZGp1c3Q9InNwYWNpbmciIHRleHRMZW5ndGg9Ijk3LjI2ODYiIHg9IjkyNiIgeT0iMTMxLjc1MiI+U3RyaW5nIG1lc3NhZ2U8L3RleHQ+PGVsbGlwc2UgY3g9IjkxNyIgY3k9IjE0NS4xMzI4IiBmaWxsPSJ0cmFuc3BhcmVudCIgcng9IjMiIHJ5PSIzIiBzdHlsZT0ic3Ryb2tlOiMwMzgwNDg7c3Ryb2tlLXdpZHRoOjE7Ii8+PHRleHQgZmlsbD0iIzAwMDAwMCIgZm9udC1mYW1pbHk9InNhbnMtc2VyaWYiIGZvbnQtc2l6ZT0iMTQiIGxlbmd0aEFkanVzdD0ic3BhY2luZyIgdGV4dExlbmd0aD0iMTMwLjczMDUiIHg9IjkyNiIgeT0iMTQ5LjM2MTMiPk5vdGlmaWNhdGlvblR5cGUgdHlwZTwvdGV4dD48ZWxsaXBzZSBjeD0iOTE3IiBjeT0iMTYyLjc0MjIiIGZpbGw9InRyYW5zcGFyZW50IiByeD0iMyIgcnk9IjMiIHN0eWxlPSJzdHJva2U6IzAzODA0ODtzdHJva2Utd2lkdGg6MTsiLz48dGV4dCBmaWxsPSIjMDAwMDAwIiBmb250LWZhbWlseT0ic2Fucy1zZXJpZiIgZm9udC1zaXplPSIxNCIgbGVuZ3RoQWRqdXN0PSJzcGFjaW5nIiB0ZXh0TGVuZ3RoPSIxMDAuNDA2MyIgeD0iOTI2IiB5PSIxNjYuOTcwNyI+TG9uZyB0ZW1wbGF0ZUlkPC90ZXh0PjxsaW5lIHN0eWxlPSJzdHJva2U6IzE4MTgxODtzdHJva2Utd2lkdGg6MC41OyIgeDE9IjkwNyIgeDI9IjEwNjEuNzMwNSIgeTE9IjE3NC4wNDY5IiB5Mj0iMTc0LjA0NjkiLz48L2c+PCEtLWNsYXNzIE5vdGlmaWNhdGlvbk1hcHBlci0tPjxnIGlkPSJlbGVtX05vdGlmaWNhdGlvbk1hcHBlciI+PHJlY3QgY29kZUxpbmU9IjUwIiBmaWxsPSIjRjFGMUYxIiBoZWlnaHQ9IjgzLjIxODgiIGlkPSJOb3RpZmljYXRpb25NYXBwZXIiIHJ4PSIyLjUiIHJ5PSIyLjUiIHN0eWxlPSJzdHJva2U6IzE4MTgxODtzdHJva2Utd2lkdGg6MC41OyIgd2lkdGg9IjMxMS41NTc2IiB4PSI3MTYuNSIgeT0iMzA0LjEwOTQiLz48ZWxsaXBzZSBjeD0iODA5LjY2NyIgY3k9IjMyMC4xMDk0IiBmaWxsPSIjQUREMUIyIiByeD0iMTEiIHJ5PSIxMSIgc3R5bGU9InN0cm9rZTojMTgxODE4O3N0cm9rZS13aWR0aDoxOyIvPjxwYXRoIGQ9Ik04MTIuNDMyNiwzMTUuOTg0NCBRODEyLjU4ODksMzE1Ljc2NTYgODEyLjc3NjQsMzE1LjY1NjMgUTgxMi45NjM5LDMxNS41NDY5IDgxMy4xODI2LDMxNS41NDY5IFE4MTMuNTU3NiwzMTUuNTQ2OSA4MTMuNzkyLDMxNS44MTI1IFE4MTQuMDI2NCwzMTYuMDYyNSA4MTQuMDI2NCwzMTYuNjcxOSBMODE0LjAyNjQsMzE4LjEyNSBRODE0LjAyNjQsMzE4LjczNDQgODEzLjc5MiwzMTkgUTgxMy41NTc2LDMxOS4yNjU2IDgxMy4xODI2LDMxOS4yNjU2IFE4MTIuODM4OSwzMTkuMjY1NiA4MTIuNjM1NywzMTkuMDYyNSBRODEyLjQzMjYsMzE4Ljg3NSA4MTIuMzIzMiwzMTguMzU5NCBRODEyLjI3NjQsMzE4IDgxMi4wODg5LDMxNy44MTI1IFE4MTEuNzYwNywzMTcuNDM3NSA4MTEuMTUxNCwzMTcuMjE4OCBRODEwLjU0MiwzMTcgODA5LjkxNywzMTcgUTgwOS4xNTE0LDMxNyA4MDguNTEwNywzMTcuMzI4MSBRODA3Ljg4NTcsMzE3LjY1NjMgODA3LjM4NTcsMzE4LjQwNjMgUTgwNi45MDE0LDMxOS4xNTYzIDgwNi45MDE0LDMyMC4xODc1IEw4MDYuOTAxNCwzMjEuMjgxMyBRODA2LjkwMTQsMzIyLjUxNTYgODA3Ljc5MiwzMjMuMzQzOCBRODA4LjY4MjYsMzI0LjE1NjMgODEwLjI3NjQsMzI0LjE1NjMgUTgxMS4yMTM5LDMyNC4xNTYzIDgxMS44NzAxLDMyMy45MDYzIFE4MTIuMjYwNywzMjMuNzUgODEyLjY4MjYsMzIzLjMxMjUgUTgxMi45NDgyLDMyMy4wNDY5IDgxMy4wODg5LDMyMi45Njg4IFE4MTMuMjQ1MSwzMjIuODkwNiA4MTMuNDQ4MiwzMjIuODkwNiBRODEzLjc3NjQsMzIyLjg5MDYgODE0LjAyNjQsMzIzLjE1NjMgUTgxNC4yOTIsMzIzLjQwNjMgODE0LjI5MiwzMjMuNzUgUTgxNC4yOTIsMzI0LjA5MzggODEzLjk0ODIsMzI0LjUgUTgxMy40NDgyLDMyNS4wNzgxIDgxMi42NTE0LDMyNS40MDYzIFE4MTEuNTczMiwzMjUuODU5NCA4MTAuMjc2NCwzMjUuODU5NCBRODA4Ljc2MDcsMzI1Ljg1OTQgODA3LjU1NzYsMzI1LjIzNDQgUTgwNi41NzMyLDMyNC43MzQ0IDgwNS44ODU3LDMyMy42NzE5IFE4MDUuMTk4MiwzMjIuNTkzOCA4MDUuMTk4MiwzMjEuMzEyNSBMODA1LjE5ODIsMzIwLjE1NjMgUTgwNS4xOTgyLDMxOC44MjgxIDgwNS44MDc2LDMxNy42ODc1IFE4MDYuNDMyNiwzMTYuNTMxMyA4MDcuNTI2NCwzMTUuOTIxOSBRODA4LjYyMDEsMzE1LjI5NjkgODA5Ljg1NDUsMzE1LjI5NjkgUTgxMC41ODg5LDMxNS4yOTY5IDgxMS4yMjk1LDMxNS40Njg4IFE4MTEuODg1NywzMTUuNjI1IDgxMi40MzI2LDMxNS45ODQ0IFogIiBmaWxsPSIjMDAwMDAwIi8+PHRleHQgZmlsbD0iIzAwMDAwMCIgZm9udC1mYW1pbHk9InNhbnMtc2VyaWYiIGZvbnQtc2l6ZT0iMTQiIGxlbmd0aEFkanVzdD0ic3BhY2luZyIgdGV4dExlbmd0aD0iMTE2LjcyMzYiIHg9IjgzMC4xNjciIHk9IjMyNS44Mzc5Ij5Ob3RpZmljYXRpb25NYXBwZXI8L3RleHQ+PGxpbmUgc3R5bGU9InN0cm9rZTojMTgxODE4O3N0cm9rZS13aWR0aDowLjU7IiB4MT0iNzE3LjUiIHgyPSIxMDI3LjA1NzYiIHkxPSIzMzYuMTA5NCIgeTI9IjMzNi4xMDk0Ii8+PGxpbmUgc3R5bGU9InN0cm9rZTojMTgxODE4O3N0cm9rZS13aWR0aDowLjU7IiB4MT0iNzE3LjUiIHgyPSIxMDI3LjA1NzYiIHkxPSIzNDQuMTA5NCIgeTI9IjM0NC4xMDk0Ii8+PGVsbGlwc2UgY3g9IjcyNy41IiBjeT0iMzU4LjQxNDEiIGZpbGw9IiM4NEJFODQiIHJ4PSIzIiByeT0iMyIgc3R5bGU9InN0cm9rZTojMDM4MDQ4O3N0cm9rZS13aWR0aDoxOyIvPjx0ZXh0IGZpbGw9IiMwMDAwMDAiIGZvbnQtZmFtaWx5PSJzYW5zLXNlcmlmIiBmb250LXNpemU9IjE0IiBsZW5ndGhBZGp1c3Q9InNwYWNpbmciIHRleHRMZW5ndGg9IjI1MS4zMTY0IiB4PSI3MzYuNSIgeT0iMzYyLjY0MjYiPk5vdGlmaWNhdGlvbiB0b0VudGl0eShOb3RpZmljYXRpb25EVE8gZHRvKTwvdGV4dD48ZWxsaXBzZSBjeD0iNzI3LjUiIGN5PSIzNzYuMDIzNCIgZmlsbD0iIzg0QkU4NCIgcng9IjMiIHJ5PSIzIiBzdHlsZT0ic3Ryb2tlOiMwMzgwNDg7c3Ryb2tlLXdpZHRoOjE7Ii8+PHRleHQgZmlsbD0iIzAwMDAwMCIgZm9udC1mYW1pbHk9InNhbnMtc2VyaWYiIGZvbnQtc2l6ZT0iMTQiIGxlbmd0aEFkanVzdD0ic3BhY2luZyIgdGV4dExlbmd0aD0iMjg1LjU1NzYiIHg9IjczNi41IiB5PSIzODAuMjUyIj5Ob3RpZmljYXRpb25EVE8gdG9EdG8oTm90aWZpY2F0aW9uIG5vdGlmaWNhdGlvbik8L3RleHQ+PC9nPjwhLS1jbGFzcyBOb3RpZmljYXRpb25TZXJ2aWNlLS0+PGcgaWQ9ImVsZW1fTm90aWZpY2F0aW9uU2VydmljZSI+PHJlY3QgY29kZUxpbmU9IjU2IiBmaWxsPSIjRjFGMUYxIiBoZWlnaHQ9IjExOC40Mzc1IiBpZD0iTm90aWZpY2F0aW9uU2VydmljZSIgcng9IjIuNSIgcnk9IjIuNSIgc3R5bGU9InN0cm9rZTojMTgxODE4O3N0cm9rZS13aWR0aDowLjU7IiB3aWR0aD0iMzcxLjUwODgiIHg9IjEwNjMuNSIgeT0iMjg2LjYwOTQiLz48ZWxsaXBzZSBjeD0iMTE4Ny4wMzU2IiBjeT0iMzAyLjYwOTQiIGZpbGw9IiNCNEE3RTUiIHJ4PSIxMSIgcnk9IjExIiBzdHlsZT0ic3Ryb2tlOiMxODE4MTg7c3Ryb2tlLXdpZHRoOjE7Ii8+PHBhdGggZD0iTTExODcuOTg4OCwyOTkuMjUgTDExODcuOTg4OCwzMDUuOTA2MyBMMTE4OS43MDc1LDMwNS45MDYzIFExMTkwLjMxNjksMzA1LjkwNjMgMTE5MC41ODI1LDMwNi4xNDA2IFExMTkwLjg0ODEsMzA2LjM3NSAxMTkwLjg0ODEsMzA2Ljc2NTYgUTExOTAuODQ4MSwzMDcuMTQwNiAxMTkwLjU4MjUsMzA3LjM3NSBRMTE5MC4zMTY5LDMwNy42MDk0IDExODkuNzA3NSwzMDcuNjA5NCBMMTE4NC41NjY5LDMwNy42MDk0IFExMTgzLjk1NzUsMzA3LjYwOTQgMTE4My42OTE5LDMwNy4zNzUgUTExODMuNDI2MywzMDcuMTQwNiAxMTgzLjQyNjMsMzA2Ljc1IFExMTgzLjQyNjMsMzA2LjM3NSAxMTgzLjY5MTksMzA2LjE0MDYgUTExODMuOTU3NSwzMDUuOTA2MyAxMTg0LjU2NjksMzA1LjkwNjMgTDExODYuMjg1NiwzMDUuOTA2MyBMMTE4Ni4yODU2LDI5OS4yNSBMMTE4NC41NjY5LDI5OS4yNSBRMTE4My45NTc1LDI5OS4yNSAxMTgzLjY5MTksMjk5LjAxNTYgUTExODMuNDI2MywyOTguNzgxMyAxMTgzLjQyNjMsMjk4LjM5MDYgUTExODMuNDI2MywyOTguMDE1NiAxMTgzLjY5MTksMjk3Ljc4MTMgUTExODMuOTU3NSwyOTcuNTQ2OSAxMTg0LjU2NjksMjk3LjU0NjkgTDExODkuNzA3NSwyOTcuNTQ2OSBRMTE5MC4zMTY5LDI5Ny41NDY5IDExOTAuNTgyNSwyOTcuNzgxMyBRMTE5MC44NDgxLDI5OC4wMTU2IDExOTAuODQ4MSwyOTguMzkwNiBRMTE5MC44NDgxLDI5OC43ODEzIDExOTAuNTgyNSwyOTkuMDE1NiBRMTE5MC4zMTY5LDI5OS4yNSAxMTg5LjcwNzUsMjk5LjI1IEwxMTg3Ljk4ODgsMjk5LjI1IFogIiBmaWxsPSIjMDAwMDAwIi8+PHRleHQgZmlsbD0iIzAwMDAwMCIgZm9udC1mYW1pbHk9InNhbnMtc2VyaWYiIGZvbnQtc2l6ZT0iMTQiIGZvbnQtc3R5bGU9Iml0YWxpYyIgbGVuZ3RoQWRqdXN0PSJzcGFjaW5nIiB0ZXh0TGVuZ3RoPSIxMTUuOTM3NSIgeD0iMTIwNy41MzU2IiB5PSIzMDguMzM3OSI+Tm90aWZpY2F0aW9uU2VydmljZTwvdGV4dD48bGluZSBzdHlsZT0ic3Ryb2tlOiMxODE4MTg7c3Ryb2tlLXdpZHRoOjAuNTsiIHgxPSIxMDY0LjUiIHgyPSIxNDM0LjAwODgiIHkxPSIzMTguNjA5NCIgeTI9IjMxOC42MDk0Ii8+PGxpbmUgc3R5bGU9InN0cm9rZTojMTgxODE4O3N0cm9rZS13aWR0aDowLjU7IiB4MT0iMTA2NC41IiB4Mj0iMTQzNC4wMDg4IiB5MT0iMzI2LjYwOTQiIHkyPSIzMjYuNjA5NCIvPjxlbGxpcHNlIGN4PSIxMDc0LjUiIGN5PSIzNDAuOTE0MSIgZmlsbD0iIzg0QkU4NCIgcng9IjMiIHJ5PSIzIiBzdHlsZT0ic3Ryb2tlOiMwMzgwNDg7c3Ryb2tlLXdpZHRoOjE7Ii8+PHRleHQgZmlsbD0iIzAwMDAwMCIgZm9udC1mYW1pbHk9InNhbnMtc2VyaWYiIGZvbnQtc2l6ZT0iMTQiIGxlbmd0aEFkanVzdD0ic3BhY2luZyIgdGV4dExlbmd0aD0iMzM3LjY4ODUiIHg9IjEwODMuNSIgeT0iMzQ1LjE0MjYiPnZvaWQgc2VuZE5vdGlmaWNhdGlvbihOb3RpZmljYXRpb25EVE8gbm90aWZpY2F0aW9uRFRPKTwvdGV4dD48ZWxsaXBzZSBjeD0iMTA3NC41IiBjeT0iMzU4LjUyMzQiIGZpbGw9IiM4NEJFODQiIHJ4PSIzIiByeT0iMyIgc3R5bGU9InN0cm9rZTojMDM4MDQ4O3N0cm9rZS13aWR0aDoxOyIvPjx0ZXh0IGZpbGw9IiMwMDAwMDAiIGZvbnQtZmFtaWx5PSJzYW5zLXNlcmlmIiBmb250LXNpemU9IjE0IiBsZW5ndGhBZGp1c3Q9InNwYWNpbmciIHRleHRMZW5ndGg9IjM0NS41MDg4IiB4PSIxMDgzLjUiIHk9IjM2Mi43NTIiPkxpc3QmbHQ7Tm90aWZpY2F0aW9uJmd0OyBnZXRVc2VyTm90aWZpY2F0aW9ucyhMb25nIHJlY2lwaWVudElkKTwvdGV4dD48ZWxsaXBzZSBjeD0iMTA3NC41IiBjeT0iMzc2LjEzMjgiIGZpbGw9IiM4NEJFODQiIHJ4PSIzIiByeT0iMyIgc3R5bGU9InN0cm9rZTojMDM4MDQ4O3N0cm9rZS13aWR0aDoxOyIvPjx0ZXh0IGZpbGw9IiMwMDAwMDAiIGZvbnQtZmFtaWx5PSJzYW5zLXNlcmlmIiBmb250LXNpemU9IjE0IiBsZW5ndGhBZGp1c3Q9InNwYWNpbmciIHRleHRMZW5ndGg9IjIyOC43ODUyIiB4PSIxMDgzLjUiIHk9IjM4MC4zNjEzIj52b2lkIG1hcmtBc1NlbnQoTG9uZyBub3RpZmljYXRpb25JZCk8L3RleHQ+PGVsbGlwc2UgY3g9IjEwNzQuNSIgY3k9IjM5My43NDIyIiBmaWxsPSIjODRCRTg0IiByeD0iMyIgcnk9IjMiIHN0eWxlPSJzdHJva2U6IzAzODA0ODtzdHJva2Utd2lkdGg6MTsiLz48dGV4dCBmaWxsPSIjMDAwMDAwIiBmb250LWZhbWlseT0ic2Fucy1zZXJpZiIgZm9udC1zaXplPSIxNCIgbGVuZ3RoQWRqdXN0PSJzcGFjaW5nIiB0ZXh0TGVuZ3RoPSIzMjEuMzY0MyIgeD0iMTA4My41IiB5PSIzOTcuOTcwNyI+dm9pZCBjcmVhdGVUZW1wbGF0ZShOb3RpZmljYXRpb25UZW1wbGF0ZSB0ZW1wbGF0ZSk8L3RleHQ+PC9nPjwhLS1jbGFzcyBOb3RpZmljYXRpb25TZXJ2aWNlSW1wbC0tPjxnIGlkPSJlbGVtX05vdGlmaWNhdGlvblNlcnZpY2VJbXBsIj48cmVjdCBjb2RlTGluZT0iNjQiIGZpbGw9IiNGMUYxRjEiIGhlaWdodD0iMTE4LjQzNzUiIGlkPSJOb3RpZmljYXRpb25TZXJ2aWNlSW1wbCIgcng9IjIuNSIgcnk9IjIuNSIgc3R5bGU9InN0cm9rZTojMTgxODE4O3N0cm9rZS13aWR0aDowLjU7IiB3aWR0aD0iMzcxLjUwODgiIHg9IjE2MjcuNSIgeT0iNjMuNjA5NCIvPjxlbGxpcHNlIGN4PSIxNzM3LjgxMTUiIGN5PSI3OS42MDk0IiBmaWxsPSIjQUREMUIyIiByeD0iMTEiIHJ5PSIxMSIgc3R5bGU9InN0cm9rZTojMTgxODE4O3N0cm9rZS13aWR0aDoxOyIvPjxwYXRoIGQ9Ik0xNzQwLjU3NzEsNzUuNDg0NCBRMTc0MC43MzM0LDc1LjI2NTYgMTc0MC45MjA5LDc1LjE1NjMgUTE3NDEuMTA4NCw3NS4wNDY5IDE3NDEuMzI3MSw3NS4wNDY5IFExNzQxLjcwMjEsNzUuMDQ2OSAxNzQxLjkzNjUsNzUuMzEyNSBRMTc0Mi4xNzA5LDc1LjU2MjUgMTc0Mi4xNzA5LDc2LjE3MTkgTDE3NDIuMTcwOSw3Ny42MjUgUTE3NDIuMTcwOSw3OC4yMzQ0IDE3NDEuOTM2NSw3OC41IFExNzQxLjcwMjEsNzguNzY1NiAxNzQxLjMyNzEsNzguNzY1NiBRMTc0MC45ODM0LDc4Ljc2NTYgMTc0MC43ODAzLDc4LjU2MjUgUTE3NDAuNTc3MSw3OC4zNzUgMTc0MC40Njc4LDc3Ljg1OTQgUTE3NDAuNDIwOSw3Ny41IDE3NDAuMjMzNCw3Ny4zMTI1IFExNzM5LjkwNTMsNzYuOTM3NSAxNzM5LjI5NTksNzYuNzE4OCBRMTczOC42ODY1LDc2LjUgMTczOC4wNjE1LDc2LjUgUTE3MzcuMjk1OSw3Ni41IDE3MzYuNjU1Myw3Ni44MjgxIFExNzM2LjAzMDMsNzcuMTU2MyAxNzM1LjUzMDMsNzcuOTA2MyBRMTczNS4wNDU5LDc4LjY1NjMgMTczNS4wNDU5LDc5LjY4NzUgTDE3MzUuMDQ1OSw4MC43ODEzIFExNzM1LjA0NTksODIuMDE1NiAxNzM1LjkzNjUsODIuODQzOCBRMTczNi44MjcxLDgzLjY1NjMgMTczOC40MjA5LDgzLjY1NjMgUTE3MzkuMzU4NCw4My42NTYzIDE3NDAuMDE0Niw4My40MDYzIFExNzQwLjQwNTMsODMuMjUgMTc0MC44MjcxLDgyLjgxMjUgUTE3NDEuMDkyOCw4Mi41NDY5IDE3NDEuMjMzNCw4Mi40Njg4IFExNzQxLjM4OTYsODIuMzkwNiAxNzQxLjU5MjgsODIuMzkwNiBRMTc0MS45MjA5LDgyLjM5MDYgMTc0Mi4xNzA5LDgyLjY1NjMgUTE3NDIuNDM2NSw4Mi45MDYzIDE3NDIuNDM2NSw4My4yNSBRMTc0Mi40MzY1LDgzLjU5MzggMTc0Mi4wOTI4LDg0IFExNzQxLjU5MjgsODQuNTc4MSAxNzQwLjc5NTksODQuOTA2MyBRMTczOS43MTc4LDg1LjM1OTQgMTczOC40MjA5LDg1LjM1OTQgUTE3MzYuOTA1Myw4NS4zNTk0IDE3MzUuNzAyMSw4NC43MzQ0IFExNzM0LjcxNzgsODQuMjM0NCAxNzM0LjAzMDMsODMuMTcxOSBRMTczMy4zNDI4LDgyLjA5MzggMTczMy4zNDI4LDgwLjgxMjUgTDE3MzMuMzQyOCw3OS42NTYzIFExNzMzLjM0MjgsNzguMzI4MSAxNzMzLjk1MjEsNzcuMTg3NSBRMTczNC41NzcxLDc2LjAzMTMgMTczNS42NzA5LDc1LjQyMTkgUTE3MzYuNzY0Niw3NC43OTY5IDE3MzcuOTk5LDc0Ljc5NjkgUTE3MzguNzMzNCw3NC43OTY5IDE3MzkuMzc0LDc0Ljk2ODggUTE3NDAuMDMwMyw3NS4xMjUgMTc0MC41NzcxLDc1LjQ4NDQgWiAiIGZpbGw9IiMwMDAwMDAiLz48dGV4dCBmaWxsPSIjMDAwMDAwIiBmb250LWZhbWlseT0ic2Fucy1zZXJpZiIgZm9udC1zaXplPSIxNCIgbGVuZ3RoQWRqdXN0PSJzcGFjaW5nIiB0ZXh0TGVuZ3RoPSIxNDIuMzg1NyIgeD0iMTc1OC4zMTE1IiB5PSI4NS4zMzc5Ij5Ob3RpZmljYXRpb25TZXJ2aWNlSW1wbDwvdGV4dD48bGluZSBzdHlsZT0ic3Ryb2tlOiMxODE4MTg7c3Ryb2tlLXdpZHRoOjAuNTsiIHgxPSIxNjI4LjUiIHgyPSIxOTk4LjAwODgiIHkxPSI5NS42MDk0IiB5Mj0iOTUuNjA5NCIvPjxsaW5lIHN0eWxlPSJzdHJva2U6IzE4MTgxODtzdHJva2Utd2lkdGg6MC41OyIgeDE9IjE2MjguNSIgeDI9IjE5OTguMDA4OCIgeTE9IjEwMy42MDk0IiB5Mj0iMTAzLjYwOTQiLz48ZWxsaXBzZSBjeD0iMTYzOC41IiBjeT0iMTE3LjkxNDEiIGZpbGw9IiM4NEJFODQiIHJ4PSIzIiByeT0iMyIgc3R5bGU9InN0cm9rZTojMDM4MDQ4O3N0cm9rZS13aWR0aDoxOyIvPjx0ZXh0IGZpbGw9IiMwMDAwMDAiIGZvbnQtZmFtaWx5PSJzYW5zLXNlcmlmIiBmb250LXNpemU9IjE0IiBsZW5ndGhBZGp1c3Q9InNwYWNpbmciIHRleHRMZW5ndGg9IjMzNy42ODg1IiB4PSIxNjQ3LjUiIHk9IjEyMi4xNDI2Ij52b2lkIHNlbmROb3RpZmljYXRpb24oTm90aWZpY2F0aW9uRFRPIG5vdGlmaWNhdGlvbkRUTyk8L3RleHQ+PGVsbGlwc2UgY3g9IjE2MzguNSIgY3k9IjEzNS41MjM0IiBmaWxsPSIjODRCRTg0IiByeD0iMyIgcnk9IjMiIHN0eWxlPSJzdHJva2U6IzAzODA0ODtzdHJva2Utd2lkdGg6MTsiLz48dGV4dCBmaWxsPSIjMDAwMDAwIiBmb250LWZhbWlseT0ic2Fucy1zZXJpZiIgZm9udC1zaXplPSIxNCIgbGVuZ3RoQWRqdXN0PSJzcGFjaW5nIiB0ZXh0TGVuZ3RoPSIzNDUuNTA4OCIgeD0iMTY0Ny41IiB5PSIxMzkuNzUyIj5MaXN0Jmx0O05vdGlmaWNhdGlvbiZndDsgZ2V0VXNlck5vdGlmaWNhdGlvbnMoTG9uZyByZWNpcGllbnRJZCk8L3RleHQ+PGVsbGlwc2UgY3g9IjE2MzguNSIgY3k9IjE1My4xMzI4IiBmaWxsPSIjODRCRTg0IiByeD0iMyIgcnk9IjMiIHN0eWxlPSJzdHJva2U6IzAzODA0ODtzdHJva2Utd2lkdGg6MTsiLz48dGV4dCBmaWxsPSIjMDAwMDAwIiBmb250LWZhbWlseT0ic2Fucy1zZXJpZiIgZm9udC1zaXplPSIxNCIgbGVuZ3RoQWRqdXN0PSJzcGFjaW5nIiB0ZXh0TGVuZ3RoPSIyMjguNzg1MiIgeD0iMTY0Ny41IiB5PSIxNTcuMzYxMyI+dm9pZCBtYXJrQXNTZW50KExvbmcgbm90aWZpY2F0aW9uSWQpPC90ZXh0PjxlbGxpcHNlIGN4PSIxNjM4LjUiIGN5PSIxNzAuNzQyMiIgZmlsbD0iIzg0QkU4NCIgcng9IjMiIHJ5PSIzIiBzdHlsZT0ic3Ryb2tlOiMwMzgwNDg7c3Ryb2tlLXdpZHRoOjE7Ii8+PHRleHQgZmlsbD0iIzAwMDAwMCIgZm9udC1mYW1pbHk9InNhbnMtc2VyaWYiIGZvbnQtc2l6ZT0iMTQiIGxlbmd0aEFkanVzdD0ic3BhY2luZyIgdGV4dExlbmd0aD0iMzIxLjM2NDMiIHg9IjE2NDcuNSIgeT0iMTc0Ljk3MDciPnZvaWQgY3JlYXRlVGVtcGxhdGUoTm90aWZpY2F0aW9uVGVtcGxhdGUgdGVtcGxhdGUpPC90ZXh0PjwvZz48IS0tY2xhc3MgTm90aWZpY2F0aW9uUmVwb3NpdG9yeS0tPjxnIGlkPSJlbGVtX05vdGlmaWNhdGlvblJlcG9zaXRvcnkiPjxyZWN0IGNvZGVMaW5lPSI3MiIgZmlsbD0iI0YxRjFGMSIgaGVpZ2h0PSIxMDAuODI4MSIgaWQ9Ik5vdGlmaWNhdGlvblJlcG9zaXRvcnkiIHJ4PSIyLjUiIHJ5PSIyLjUiIHN0eWxlPSJzdHJva2U6IzE4MTgxODtzdHJva2Utd2lkdGg6MC41OyIgd2lkdGg9IjM1NS4xODQ2IiB4PSIxNDcxIiB5PSIyOTUuMTA5NCIvPjxlbGxpcHNlIGN4PSIxNTc2LjI1NjMiIGN5PSIzMTEuMTA5NCIgZmlsbD0iI0FERDFCMiIgcng9IjExIiByeT0iMTEiIHN0eWxlPSJzdHJva2U6IzE4MTgxODtzdHJva2Utd2lkdGg6MTsiLz48cGF0aCBkPSJNMTU3OS4wMjIsMzA2Ljk4NDQgUTE1NzkuMTc4MiwzMDYuNzY1NiAxNTc5LjM2NTcsMzA2LjY1NjMgUTE1NzkuNTUzMiwzMDYuNTQ2OSAxNTc5Ljc3MiwzMDYuNTQ2OSBRMTU4MC4xNDcsMzA2LjU0NjkgMTU4MC4zODEzLDMwNi44MTI1IFExNTgwLjYxNTcsMzA3LjA2MjUgMTU4MC42MTU3LDMwNy42NzE5IEwxNTgwLjYxNTcsMzA5LjEyNSBRMTU4MC42MTU3LDMwOS43MzQ0IDE1ODAuMzgxMywzMTAgUTE1ODAuMTQ3LDMxMC4yNjU2IDE1NzkuNzcyLDMxMC4yNjU2IFExNTc5LjQyODIsMzEwLjI2NTYgMTU3OS4yMjUxLDMxMC4wNjI1IFExNTc5LjAyMiwzMDkuODc1IDE1NzguOTEyNiwzMDkuMzU5NCBRMTU3OC44NjU3LDMwOSAxNTc4LjY3ODIsMzA4LjgxMjUgUTE1NzguMzUwMSwzMDguNDM3NSAxNTc3Ljc0MDcsMzA4LjIxODggUTE1NzcuMTMxMywzMDggMTU3Ni41MDYzLDMwOCBRMTU3NS43NDA3LDMwOCAxNTc1LjEwMDEsMzA4LjMyODEgUTE1NzQuNDc1MSwzMDguNjU2MyAxNTczLjk3NTEsMzA5LjQwNjMgUTE1NzMuNDkwNywzMTAuMTU2MyAxNTczLjQ5MDcsMzExLjE4NzUgTDE1NzMuNDkwNywzMTIuMjgxMyBRMTU3My40OTA3LDMxMy41MTU2IDE1NzQuMzgxMywzMTQuMzQzOCBRMTU3NS4yNzIsMzE1LjE1NjMgMTU3Ni44NjU3LDMxNS4xNTYzIFExNTc3LjgwMzIsMzE1LjE1NjMgMTU3OC40NTk1LDMxNC45MDYzIFExNTc4Ljg1MDEsMzE0Ljc1IDE1NzkuMjcyLDMxNC4zMTI1IFExNTc5LjUzNzYsMzE0LjA0NjkgMTU3OS42NzgyLDMxMy45Njg4IFExNTc5LjgzNDUsMzEzLjg5MDYgMTU4MC4wMzc2LDMxMy44OTA2IFExNTgwLjM2NTcsMzEzLjg5MDYgMTU4MC42MTU3LDMxNC4xNTYzIFExNTgwLjg4MTMsMzE0LjQwNjMgMTU4MC44ODEzLDMxNC43NSBRMTU4MC44ODEzLDMxNS4wOTM4IDE1ODAuNTM3NiwzMTUuNSBRMTU4MC4wMzc2LDMxNi4wNzgxIDE1NzkuMjQwNywzMTYuNDA2MyBRMTU3OC4xNjI2LDMxNi44NTk0IDE1NzYuODY1NywzMTYuODU5NCBRMTU3NS4zNTAxLDMxNi44NTk0IDE1NzQuMTQ3LDMxNi4yMzQ0IFExNTczLjE2MjYsMzE1LjczNDQgMTU3Mi40NzUxLDMxNC42NzE5IFExNTcxLjc4NzYsMzEzLjU5MzggMTU3MS43ODc2LDMxMi4zMTI1IEwxNTcxLjc4NzYsMzExLjE1NjMgUTE1NzEuNzg3NiwzMDkuODI4MSAxNTcyLjM5NywzMDguNjg3NSBRMTU3My4wMjIsMzA3LjUzMTMgMTU3NC4xMTU3LDMwNi45MjE5IFExNTc1LjIwOTUsMzA2LjI5NjkgMTU3Ni40NDM4LDMwNi4yOTY5IFExNTc3LjE3ODIsMzA2LjI5NjkgMTU3Ny44MTg4LDMwNi40Njg4IFExNTc4LjQ3NTEsMzA2LjYyNSAxNTc5LjAyMiwzMDYuOTg0NCBaICIgZmlsbD0iIzAwMDAwMCIvPjx0ZXh0IGZpbGw9IiMwMDAwMDAiIGZvbnQtZmFtaWx5PSJzYW5zLXNlcmlmIiBmb250LXNpemU9IjE0IiBsZW5ndGhBZGp1c3Q9InNwYWNpbmciIHRleHRMZW5ndGg9IjEzNi4xNzE5IiB4PSIxNTk2Ljc1NjMiIHk9IjMxNi44Mzc5Ij5Ob3RpZmljYXRpb25SZXBvc2l0b3J5PC90ZXh0PjxsaW5lIHN0eWxlPSJzdHJva2U6IzE4MTgxODtzdHJva2Utd2lkdGg6MC41OyIgeDE9IjE0NzIiIHgyPSIxODI1LjE4NDYiIHkxPSIzMjcuMTA5NCIgeTI9IjMyNy4xMDk0Ii8+PGxpbmUgc3R5bGU9InN0cm9rZTojMTgxODE4O3N0cm9rZS13aWR0aDowLjU7IiB4MT0iMTQ3MiIgeDI9IjE4MjUuMTg0NiIgeTE9IjMzNS4xMDk0IiB5Mj0iMzM1LjEwOTQiLz48ZWxsaXBzZSBjeD0iMTQ4MiIgY3k9IjM0OS40MTQxIiBmaWxsPSIjODRCRTg0IiByeD0iMyIgcnk9IjMiIHN0eWxlPSJzdHJva2U6IzAzODA0ODtzdHJva2Utd2lkdGg6MTsiLz48dGV4dCBmaWxsPSIjMDAwMDAwIiBmb250LWZhbWlseT0ic2Fucy1zZXJpZiIgZm9udC1zaXplPSIxNCIgbGVuZ3RoQWRqdXN0PSJzcGFjaW5nIiB0ZXh0TGVuZ3RoPSIyNDcuNDgxNCIgeD0iMTQ5MSIgeT0iMzUzLjY0MjYiPk9wdGlvbmFsJmx0O05vdGlmaWNhdGlvbiZndDsgZmluZEJ5SWQoTG9uZyBpZCk8L3RleHQ+PGVsbGlwc2UgY3g9IjE0ODIiIGN5PSIzNjcuMDIzNCIgZmlsbD0iIzg0QkU4NCIgcng9IjMiIHJ5PSIzIiBzdHlsZT0ic3Ryb2tlOiMwMzgwNDg7c3Ryb2tlLXdpZHRoOjE7Ii8+PHRleHQgZmlsbD0iIzAwMDAwMCIgZm9udC1mYW1pbHk9InNhbnMtc2VyaWYiIGZvbnQtc2l6ZT0iMTQiIGxlbmd0aEFkanVzdD0ic3BhY2luZyIgdGV4dExlbmd0aD0iMzI5LjE4NDYiIHg9IjE0OTEiIHk9IjM3MS4yNTIiPkxpc3QmbHQ7Tm90aWZpY2F0aW9uJmd0OyBmaW5kQnlSZWNpcGllbnRJZChMb25nIHJlY2lwaWVudElkKTwvdGV4dD48ZWxsaXBzZSBjeD0iMTQ4MiIgY3k9IjM4NC42MzI4IiBmaWxsPSIjODRCRTg0IiByeD0iMyIgcnk9IjMiIHN0eWxlPSJzdHJva2U6IzAzODA0ODtzdHJva2Utd2lkdGg6MTsiLz48dGV4dCBmaWxsPSIjMDAwMDAwIiBmb250LWZhbWlseT0ic2Fucy1zZXJpZiIgZm9udC1zaXplPSIxNCIgbGVuZ3RoQWRqdXN0PSJzcGFjaW5nIiB0ZXh0TGVuZ3RoPSIyMDguNTQzOSIgeD0iMTQ5MSIgeT0iMzg4Ljg2MTMiPnZvaWQgc2F2ZShOb3RpZmljYXRpb24gbm90aWZpY2F0aW9uKTwvdGV4dD48L2c+PCEtLWNsYXNzIE5vdGlmaWNhdGlvbkNsaWVudC0tPjxnIGlkPSJlbGVtX05vdGlmaWNhdGlvbkNsaWVudCI+PHJlY3QgY29kZUxpbmU9Ijc5IiBmaWxsPSIjRjFGMUYxIiBoZWlnaHQ9IjY1LjYwOTQiIGlkPSJOb3RpZmljYXRpb25DbGllbnQiIHJ4PSIyLjUiIHJ5PSIyLjUiIHN0eWxlPSJzdHJva2U6IzE4MTgxODtzdHJva2Utd2lkdGg6MC41OyIgd2lkdGg9IjIzNS4zMzAxIiB4PSIxODYxIiB5PSIzMTIuNjA5NCIvPjxlbGxpcHNlIGN4PSIxOTIxLjg5MTEiIGN5PSIzMjguNjA5NCIgZmlsbD0iI0I0QTdFNSIgcng9IjExIiByeT0iMTEiIHN0eWxlPSJzdHJva2U6IzE4MTgxODtzdHJva2Utd2lkdGg6MTsiLz48cGF0aCBkPSJNMTkyMi44NDQyLDMyNS4yNSBMMTkyMi44NDQyLDMzMS45MDYzIEwxOTI0LjU2MywzMzEuOTA2MyBRMTkyNS4xNzI0LDMzMS45MDYzIDE5MjUuNDM4LDMzMi4xNDA2IFExOTI1LjcwMzYsMzMyLjM3NSAxOTI1LjcwMzYsMzMyLjc2NTYgUTE5MjUuNzAzNiwzMzMuMTQwNiAxOTI1LjQzOCwzMzMuMzc1IFExOTI1LjE3MjQsMzMzLjYwOTQgMTkyNC41NjMsMzMzLjYwOTQgTDE5MTkuNDIyNCwzMzMuNjA5NCBRMTkxOC44MTMsMzMzLjYwOTQgMTkxOC41NDc0LDMzMy4zNzUgUTE5MTguMjgxNywzMzMuMTQwNiAxOTE4LjI4MTcsMzMyLjc1IFExOTE4LjI4MTcsMzMyLjM3NSAxOTE4LjU0NzQsMzMyLjE0MDYgUTE5MTguODEzLDMzMS45MDYzIDE5MTkuNDIyNCwzMzEuOTA2MyBMMTkyMS4xNDExLDMzMS45MDYzIEwxOTIxLjE0MTEsMzI1LjI1IEwxOTE5LjQyMjQsMzI1LjI1IFExOTE4LjgxMywzMjUuMjUgMTkxOC41NDc0LDMyNS4wMTU2IFExOTE4LjI4MTcsMzI0Ljc4MTMgMTkxOC4yODE3LDMyNC4zOTA2IFExOTE4LjI4MTcsMzI0LjAxNTYgMTkxOC41NDc0LDMyMy43ODEzIFExOTE4LjgxMywzMjMuNTQ2OSAxOTE5LjQyMjQsMzIzLjU0NjkgTDE5MjQuNTYzLDMyMy41NDY5IFExOTI1LjE3MjQsMzIzLjU0NjkgMTkyNS40MzgsMzIzLjc4MTMgUTE5MjUuNzAzNiwzMjQuMDE1NiAxOTI1LjcwMzYsMzI0LjM5MDYgUTE5MjUuNzAzNiwzMjQuNzgxMyAxOTI1LjQzOCwzMjUuMDE1NiBRMTkyNS4xNzI0LDMyNS4yNSAxOTI0LjU2MywzMjUuMjUgTDE5MjIuODQ0MiwzMjUuMjUgWiAiIGZpbGw9IiMwMDAwMDAiLz48dGV4dCBmaWxsPSIjMDAwMDAwIiBmb250LWZhbWlseT0ic2Fucy1zZXJpZiIgZm9udC1zaXplPSIxNCIgZm9udC1zdHlsZT0iaXRhbGljIiBsZW5ndGhBZGp1c3Q9InNwYWNpbmciIHRleHRMZW5ndGg9IjEwNS4wNDc5IiB4PSIxOTQyLjM5MTEiIHk9IjMzNC4zMzc5Ij5Ob3RpZmljYXRpb25DbGllbnQ8L3RleHQ+PGxpbmUgc3R5bGU9InN0cm9rZTojMTgxODE4O3N0cm9rZS13aWR0aDowLjU7IiB4MT0iMTg2MiIgeDI9IjIwOTUuMzMwMSIgeTE9IjM0NC42MDk0IiB5Mj0iMzQ0LjYwOTQiLz48bGluZSBzdHlsZT0ic3Ryb2tlOiMxODE4MTg7c3Ryb2tlLXdpZHRoOjAuNTsiIHgxPSIxODYyIiB4Mj0iMjA5NS4zMzAxIiB5MT0iMzUyLjYwOTQiIHkyPSIzNTIuNjA5NCIvPjxlbGxpcHNlIGN4PSIxODcyIiBjeT0iMzY2LjkxNDEiIGZpbGw9IiM4NEJFODQiIHJ4PSIzIiByeT0iMyIgc3R5bGU9InN0cm9rZTojMDM4MDQ4O3N0cm9rZS13aWR0aDoxOyIvPjx0ZXh0IGZpbGw9IiMwMDAwMDAiIGZvbnQtZmFtaWx5PSJzYW5zLXNlcmlmIiBmb250LXNpemU9IjE0IiBsZW5ndGhBZGp1c3Q9InNwYWNpbmciIHRleHRMZW5ndGg9IjIwOS4zMzAxIiB4PSIxODgxIiB5PSIzNzEuMTQyNiI+dm9pZCBzZW5kKE5vdGlmaWNhdGlvbiBub3RpZmljYXRpb24pPC90ZXh0PjwvZz48IS0tY2xhc3MgVXNlckZlaWduQ2xpZW50LS0+PGcgaWQ9ImVsZW1fVXNlckZlaWduQ2xpZW50Ij48cmVjdCBjb2RlTGluZT0iODUiIGZpbGw9IiNGMUYxRjEiIGhlaWdodD0iNjUuNjA5NCIgaWQ9IlVzZXJGZWlnbkNsaWVudCIgcng9IjIuNSIgcnk9IjIuNSIgc3R5bGU9InN0cm9rZTojMTgxODE4O3N0cm9rZS13aWR0aDowLjU7IiB3aWR0aD0iMjc0Ljk4NTQiIHg9IjIxMzEiIHk9IjMxMi42MDk0Ii8+PGVsbGlwc2UgY3g9IjIyMTQuMDU2NiIgY3k9IjMyOC42MDk0IiBmaWxsPSIjQUREMUIyIiByeD0iMTEiIHJ5PSIxMSIgc3R5bGU9InN0cm9rZTojMTgxODE4O3N0cm9rZS13aWR0aDoxOyIvPjxwYXRoIGQ9Ik0yMjE2LjgyMjMsMzI0LjQ4NDQgUTIyMTYuOTc4NSwzMjQuMjY1NiAyMjE3LjE2NiwzMjQuMTU2MyBRMjIxNy4zNTM1LDMyNC4wNDY5IDIyMTcuNTcyMywzMjQuMDQ2OSBRMjIxNy45NDczLDMyNC4wNDY5IDIyMTguMTgxNiwzMjQuMzEyNSBRMjIxOC40MTYsMzI0LjU2MjUgMjIxOC40MTYsMzI1LjE3MTkgTDIyMTguNDE2LDMyNi42MjUgUTIyMTguNDE2LDMyNy4yMzQ0IDIyMTguMTgxNiwzMjcuNSBRMjIxNy45NDczLDMyNy43NjU2IDIyMTcuNTcyMywzMjcuNzY1NiBRMjIxNy4yMjg1LDMyNy43NjU2IDIyMTcuMDI1NCwzMjcuNTYyNSBRMjIxNi44MjIzLDMyNy4zNzUgMjIxNi43MTI5LDMyNi44NTk0IFEyMjE2LjY2NiwzMjYuNSAyMjE2LjQ3ODUsMzI2LjMxMjUgUTIyMTYuMTUwNCwzMjUuOTM3NSAyMjE1LjU0MSwzMjUuNzE4OCBRMjIxNC45MzE2LDMyNS41IDIyMTQuMzA2NiwzMjUuNSBRMjIxMy41NDEsMzI1LjUgMjIxMi45MDA0LDMyNS44MjgxIFEyMjEyLjI3NTQsMzI2LjE1NjMgMjIxMS43NzU0LDMyNi45MDYzIFEyMjExLjI5MSwzMjcuNjU2MyAyMjExLjI5MSwzMjguNjg3NSBMMjIxMS4yOTEsMzI5Ljc4MTMgUTIyMTEuMjkxLDMzMS4wMTU2IDIyMTIuMTgxNiwzMzEuODQzOCBRMjIxMy4wNzIzLDMzMi42NTYzIDIyMTQuNjY2LDMzMi42NTYzIFEyMjE1LjYwMzUsMzMyLjY1NjMgMjIxNi4yNTk4LDMzMi40MDYzIFEyMjE2LjY1MDQsMzMyLjI1IDIyMTcuMDcyMywzMzEuODEyNSBRMjIxNy4zMzc5LDMzMS41NDY5IDIyMTcuNDc4NSwzMzEuNDY4OCBRMjIxNy42MzQ4LDMzMS4zOTA2IDIyMTcuODM3OSwzMzEuMzkwNiBRMjIxOC4xNjYsMzMxLjM5MDYgMjIxOC40MTYsMzMxLjY1NjMgUTIyMTguNjgxNiwzMzEuOTA2MyAyMjE4LjY4MTYsMzMyLjI1IFEyMjE4LjY4MTYsMzMyLjU5MzggMjIxOC4zMzc5LDMzMyBRMjIxNy44Mzc5LDMzMy41NzgxIDIyMTcuMDQxLDMzMy45MDYzIFEyMjE1Ljk2MjksMzM0LjM1OTQgMjIxNC42NjYsMzM0LjM1OTQgUTIyMTMuMTUwNCwzMzQuMzU5NCAyMjExLjk0NzMsMzMzLjczNDQgUTIyMTAuOTYyOSwzMzMuMjM0NCAyMjEwLjI3NTQsMzMyLjE3MTkgUTIyMDkuNTg3OSwzMzEuMDkzOCAyMjA5LjU4NzksMzI5LjgxMjUgTDIyMDkuNTg3OSwzMjguNjU2MyBRMjIwOS41ODc5LDMyNy4zMjgxIDIyMTAuMTk3MywzMjYuMTg3NSBRMjIxMC44MjIzLDMyNS4wMzEzIDIyMTEuOTE2LDMyNC40MjE5IFEyMjEzLjAwOTgsMzIzLjc5NjkgMjIxNC4yNDQxLDMyMy43OTY5IFEyMjE0Ljk3ODUsMzIzLjc5NjkgMjIxNS42MTkxLDMyMy45Njg4IFEyMjE2LjI3NTQsMzI0LjEyNSAyMjE2LjgyMjMsMzI0LjQ4NDQgWiAiIGZpbGw9IiMwMDAwMDAiLz48dGV4dCBmaWxsPSIjMDAwMDAwIiBmb250LWZhbWlseT0ic2Fucy1zZXJpZiIgZm9udC1zaXplPSIxNCIgbGVuZ3RoQWRqdXN0PSJzcGFjaW5nIiB0ZXh0TGVuZ3RoPSIxMDAuMzcyMSIgeD0iMjIzNC41NTY2IiB5PSIzMzQuMzM3OSI+VXNlckZlaWduQ2xpZW50PC90ZXh0PjxsaW5lIHN0eWxlPSJzdHJva2U6IzE4MTgxODtzdHJva2Utd2lkdGg6MC41OyIgeDE9IjIxMzIiIHgyPSIyNDA0Ljk4NTQiIHkxPSIzNDQuNjA5NCIgeTI9IjM0NC42MDk0Ii8+PGxpbmUgc3R5bGU9InN0cm9rZTojMTgxODE4O3N0cm9rZS13aWR0aDowLjU7IiB4MT0iMjEzMiIgeDI9IjI0MDQuOTg1NCIgeTE9IjM1Mi42MDk0IiB5Mj0iMzUyLjYwOTQiLz48ZWxsaXBzZSBjeD0iMjE0MiIgY3k9IjM2Ni45MTQxIiBmaWxsPSIjODRCRTg0IiByeD0iMyIgcnk9IjMiIHN0eWxlPSJzdHJva2U6IzAzODA0ODtzdHJva2Utd2lkdGg6MTsiLz48dGV4dCBmaWxsPSIjMDAwMDAwIiBmb250LWZhbWlseT0ic2Fucy1zZXJpZiIgZm9udC1zaXplPSIxNCIgbGVuZ3RoQWRqdXN0PSJzcGFjaW5nIiB0ZXh0TGVuZ3RoPSIyNDguOTg1NCIgeD0iMjE1MSIgeT0iMzcxLjE0MjYiPlVzZXJEVE8gZ2V0VXNlckJ5SWQoTG9uZyByZWNpcGllbnRJZCk8L3RleHQ+PC9nPjwhLS1saW5rIE5vdGlmaWNhdGlvblNlcnZpY2VJbXBsIHRvIE5vdGlmaWNhdGlvblNlcnZpY2UtLT48ZyBpZD0ibGlua19Ob3RpZmljYXRpb25TZXJ2aWNlSW1wbF9Ob3RpZmljYXRpb25TZXJ2aWNlIj48cGF0aCBjb2RlTGluZT0iOTAiIGQ9Ik0xNjY1LjMyLDE4MS42Nzk0IEMxNTgyLjc0LDIxNC4wMjk0IDE0OTYuOTk4OSwyNDcuNjIxNCAxNDE0LjQyODksMjc5Ljk4MTQgIiBmaWxsPSJ0cmFuc3BhcmVudCIgaWQ9Ik5vdGlmaWNhdGlvblNlcnZpY2VJbXBsLXRvLU5vdGlmaWNhdGlvblNlcnZpY2UiIHN0eWxlPSJzdHJva2U6IzE4MTgxODtzdHJva2Utd2lkdGg6MTtzdHJva2UtZGFzaGFycmF5OjcuMCw3LjA7Ii8+PHBvbHlnb24gZmlsbD0idHJhbnNwYXJlbnQiIHBvaW50cz0iMTM5Ny42NywyODYuNTQ5NCwxNDE2LjYxODMsMjg1LjU2NzcsMTQxMi4yMzk2LDI3NC4zOTUxLDEzOTcuNjcsMjg2LjU0OTQiIHN0eWxlPSJzdHJva2U6IzE4MTgxODtzdHJva2Utd2lkdGg6MTsiLz48L2c+PCEtLWxpbmsgTm90aWZpY2F0aW9uU2VydmljZUltcGwgdG8gTm90aWZpY2F0aW9uUmVwb3NpdG9yeS0tPjxnIGlkPSJsaW5rX05vdGlmaWNhdGlvblNlcnZpY2VJbXBsX05vdGlmaWNhdGlvblJlcG9zaXRvcnkiPjxwYXRoIGNvZGVMaW5lPSI5MSIgZD0iTTE3NzAuMTUsMTgxLjY3OTQgQzE3NDMuODksMjE2LjgzOTQgMTcxNC4zMzk5LDI1Ni40MzE4IDE2ODkuMjc5OSwyODkuOTkxOCAiIGZpbGw9InRyYW5zcGFyZW50IiBpZD0iTm90aWZpY2F0aW9uU2VydmljZUltcGwtdG8tTm90aWZpY2F0aW9uUmVwb3NpdG9yeSIgc3R5bGU9InN0cm9rZTojMTgxODE4O3N0cm9rZS13aWR0aDoxO3N0cm9rZS1kYXNoYXJyYXk6Ny4wLDcuMDsiLz48cG9seWdvbiBmaWxsPSIjMTgxODE4IiBwb2ludHM9IjE2ODUuNjksMjk0Ljc5OTQsMTY5NC4yNzk5LDI4OS45ODEzLDE2ODguNjgxNiwyOTAuNzkzMSwxNjg3Ljg2OTgsMjg1LjE5NDgsMTY4NS42OSwyOTQuNzk5NCIgc3R5bGU9InN0cm9rZTojMTgxODE4O3N0cm9rZS13aWR0aDoxOyIvPjx0ZXh0IGZpbGw9IiMwMDAwMDAiIGZvbnQtZmFtaWx5PSJzYW5zLXNlcmlmIiBmb250LXNpemU9IjEzIiBsZW5ndGhBZGp1c3Q9InNwYWNpbmciIHRleHRMZW5ndGg9IjM1LjM5NDUiIHg9IjE3MzIuNSIgeT0iMjQ0LjEwNDUiPlV0aWxpc2U8L3RleHQ+PC9nPjwhLS1saW5rIE5vdGlmaWNhdGlvblNlcnZpY2VJbXBsIHRvIE5vdGlmaWNhdGlvbkNsaWVudC0tPjxnIGlkPSJsaW5rX05vdGlmaWNhdGlvblNlcnZpY2VJbXBsX05vdGlmaWNhdGlvbkNsaWVudCI+PHBhdGggY29kZUxpbmU9IjkyIiBkPSJNMTg1Ni44NSwxODEuNjc5NCBDMTg4OC4wNywyMjMuNDg5NCAxOTI1LjQ1MDQsMjczLjU1MTYgMTk1MC45NzA0LDMwNy43MzE2ICIgZmlsbD0idHJhbnNwYXJlbnQiIGlkPSJOb3RpZmljYXRpb25TZXJ2aWNlSW1wbC10by1Ob3RpZmljYXRpb25DbGllbnQiIHN0eWxlPSJzdHJva2U6IzE4MTgxODtzdHJva2Utd2lkdGg6MTtzdHJva2UtZGFzaGFycmF5OjcuMCw3LjA7Ii8+PHBvbHlnb24gZmlsbD0iIzE4MTgxOCIgcG9pbnRzPSIxOTU0LjU2LDMxMi41Mzk0LDE5NTIuMzgwNywzMDIuOTM0NywxOTUxLjU2ODYsMzA4LjUzMjksMTk0NS45NzA0LDMwNy43MjA4LDE5NTQuNTYsMzEyLjUzOTQiIHN0eWxlPSJzdHJva2U6IzE4MTgxODtzdHJva2Utd2lkdGg6MTsiLz48dGV4dCBmaWxsPSIjMDAwMDAwIiBmb250LWZhbWlseT0ic2Fucy1zZXJpZiIgZm9udC1zaXplPSIxMyIgbGVuZ3RoQWRqdXN0PSJzcGFjaW5nIiB0ZXh0TGVuZ3RoPSIxNzUuOTE4OSIgeD0iMTkwNy41IiB5PSIyNDQuMTA0NSI+RCYjMjMzO2wmIzIzMjtndWUgbCdlbnZvaSB2aWEgYWJzdHJhY3Rpb248L3RleHQ+PC9nPjwhLS1saW5rIE5vdGlmaWNhdGlvblNlcnZpY2VJbXBsIHRvIFVzZXJGZWlnbkNsaWVudC0tPjxnIGlkPSJsaW5rX05vdGlmaWNhdGlvblNlcnZpY2VJbXBsX1VzZXJGZWlnbkNsaWVudCI+PHBhdGggY29kZUxpbmU9IjkzIiBkPSJNMTk4Mi44NCwxODEuNjA5NCBDMjAxOS4zMSwxOTUuOTA5NCAyMDU3LjE5LDIxMi4xNjk0IDIwOTEuNSwyMjkuNjA5NCBDMjEzOS4yLDI1My44NDk0IDIxODUuMTY1MSwyODQuMzc5NSAyMjIwLjA2NTEsMzA5LjExOTUgIiBmaWxsPSJ0cmFuc3BhcmVudCIgaWQ9Ik5vdGlmaWNhdGlvblNlcnZpY2VJbXBsLXRvLVVzZXJGZWlnbkNsaWVudCIgc3R5bGU9InN0cm9rZTojMTgxODE4O3N0cm9rZS13aWR0aDoxO3N0cm9rZS1kYXNoYXJyYXk6Ny4wLDcuMDsiLz48cG9seWdvbiBmaWxsPSIjMTgxODE4IiBwb2ludHM9IjIyMjQuOTYsMzEyLjU4OTQsMjIxOS45MzA5LDMwNC4xMjEzLDIyMjAuODgwOSwzMDkuNjk3OCwyMjE1LjMwNDQsMzEwLjY0NzgsMjIyNC45NiwzMTIuNTg5NCIgc3R5bGU9InN0cm9rZTojMTgxODE4O3N0cm9rZS13aWR0aDoxOyIvPjx0ZXh0IGZpbGw9IiMwMDAwMDAiIGZvbnQtZmFtaWx5PSJzYW5zLXNlcmlmIiBmb250LXNpemU9IjEzIiBsZW5ndGhBZGp1c3Q9InNwYWNpbmciIHRleHRMZW5ndGg9IjIwNS4yMTM0IiB4PSIyMTIyLjUiIHk9IjI0NC4xMDQ1Ij5SJiMyMzM7Y3VwJiMyMzI7cmUgdXRpbGlzYXRldXIgdmlhIEZlaWduQ2xpZW50PC90ZXh0PjwvZz48IS0tbGluayBOb3RpZmljYXRpb24gdG8gRGF0ZUF1ZGl0LS0+PGcgaWQ9ImxpbmtfTm90aWZpY2F0aW9uX0RhdGVBdWRpdCI+PHBhdGggY29kZUxpbmU9Ijk2IiBkPSJNMjc0LjY2LDE0OC4wOTk0IEMyMDYuMjcsMTY5LjkwOTQgMTIyLjE1LDIwOS4yODk0IDc4LjUsMjc3LjYwOTQgQzM0Ljk5LDM0NS42OTk0IDQzLjA2NTYsNDI3LjUyNjMgNTQuNTQ1Niw0ODIuNzM2MyAiIGZpbGw9InRyYW5zcGFyZW50IiBpZD0iTm90aWZpY2F0aW9uLXRvLURhdGVBdWRpdCIgc3R5bGU9InN0cm9rZTojMTgxODE4O3N0cm9rZS13aWR0aDoxOyIvPjxwb2x5Z29uIGZpbGw9InRyYW5zcGFyZW50IiBwb2ludHM9IjU4LjIxLDUwMC4zNTk0LDYwLjQxOTksNDgxLjUxNDgsNDguNjcxMiw0ODMuOTU3OCw1OC4yMSw1MDAuMzU5NCIgc3R5bGU9InN0cm9rZTojMTgxODE4O3N0cm9rZS13aWR0aDoxOyIvPjwvZz48IS0tbGluayBOb3RpZmljYXRpb25UZW1wbGF0ZSB0byBEYXRlQXVkaXQtLT48ZyBpZD0ibGlua19Ob3RpZmljYXRpb25UZW1wbGF0ZV9EYXRlQXVkaXQiPjxwYXRoIGNvZGVMaW5lPSI5NyIgZD0iTTEzOS4xOCw0MTMuODE5NCBDMTIzLjE1LDQ0Mi42OTk0IDExMy42Njc4LDQ1OS43NTI1IDk5Ljc0NzgsNDg0LjgyMjUgIiBmaWxsPSJ0cmFuc3BhcmVudCIgaWQ9Ik5vdGlmaWNhdGlvblRlbXBsYXRlLXRvLURhdGVBdWRpdCIgc3R5bGU9InN0cm9rZTojMTgxODE4O3N0cm9rZS13aWR0aDoxOyIvPjxwb2x5Z29uIGZpbGw9InRyYW5zcGFyZW50IiBwb2ludHM9IjkxLjAxLDUwMC41NTk0LDEwNC45OTM1LDQ4Ny43MzUxLDk0LjUwMjIsNDgxLjkwOTksOTEuMDEsNTAwLjU1OTQiIHN0eWxlPSJzdHJva2U6IzE4MTgxODtzdHJva2Utd2lkdGg6MTsiLz48L2c+PCEtLWxpbmsgTm90aWZpY2F0aW9uIHRvIE5vdGlmaWNhdGlvblRlbXBsYXRlLS0+PGcgaWQ9ImxpbmtfTm90aWZpY2F0aW9uX05vdGlmaWNhdGlvblRlbXBsYXRlIj48cGF0aCBjb2RlTGluZT0iMTAwIiBkPSJNMjc0LjczLDE2MS43Mzk0IEMyNDMuNTksMTc3Ljk5OTQgMjEyLjUzLDIwMC4xODk0IDE5Mi41LDIyOS42MDk0IEMxODIuOTcsMjQzLjYwOTQgMTc4LjgyMywyNTQuODYwMyAxNzYuNDEzLDI3MS42NDAzICIgZmlsbD0idHJhbnNwYXJlbnQiIGlkPSJOb3RpZmljYXRpb24tdG8tTm90aWZpY2F0aW9uVGVtcGxhdGUiIHN0eWxlPSJzdHJva2U6IzE4MTgxODtzdHJva2Utd2lkdGg6MTsiLz48cG9seWdvbiBmaWxsPSIjMTgxODE4IiBwb2ludHM9IjE3NS41NiwyNzcuNTc5NCwxODAuNzk4OSwyNjkuMjM5NCwxNzYuMjcwOCwyNzIuNjMwMiwxNzIuODgwMSwyNjguMTAyMSwxNzUuNTYsMjc3LjU3OTQiIHN0eWxlPSJzdHJva2U6IzE4MTgxODtzdHJva2Utd2lkdGg6MTsiLz48dGV4dCBmaWxsPSIjMDAwMDAwIiBmb250LWZhbWlseT0ic2Fucy1zZXJpZiIgZm9udC1zaXplPSIxMyIgbGVuZ3RoQWRqdXN0PSJzcGFjaW5nIiB0ZXh0TGVuZ3RoPSIxMDYuOTM5IiB4PSIxOTMuNSIgeT0iMjQ0LjEwNDUiPlV0aWxpc2UgdW4gdGVtcGxhdGU8L3RleHQ+PHRleHQgZmlsbD0iIzAwMDAwMCIgZm9udC1mYW1pbHk9InNhbnMtc2VyaWYiIGZvbnQtc2l6ZT0iMTMiIGxlbmd0aEFkanVzdD0ic3BhY2luZyIgdGV4dExlbmd0aD0iNy4yMyIgeD0iMjU5LjcwNjYiIHk9IjE2MS41NDYxIj4xPC90ZXh0Pjx0ZXh0IGZpbGw9IiMwMDAwMDAiIGZvbnQtZmFtaWx5PSJzYW5zLXNlcmlmIiBmb250LXNpemU9IjEzIiBsZW5ndGhBZGp1c3Q9InNwYWNpbmciIHRleHRMZW5ndGg9IjIxLjY4MzYiIHg9IjE1My4zNjczIiB5PSIyNjYuNzc1NCI+MC4uMTwvdGV4dD48L2c+PCEtLWxpbmsgTm90aWZpY2F0aW9uRFRPIHRvIE5vdGlmaWNhdGlvbk1hcHBlci0tPjxnIGlkPSJsaW5rX05vdGlmaWNhdGlvbkRUT19Ob3RpZmljYXRpb25NYXBwZXIiPjxwYXRoIGNvZGVMaW5lPSIxMDMiIGQ9Ik05NzAuNjYsMTgxLjY5OTQgQzk2NC40NCwyMDMuMDU5NCA5NTYuMDgsMjI3LjAzOTQgOTQ1LjUsMjQ3LjYwOTQgQzkzNS4zOCwyNjcuMjg5NCA5MjUuMDAyOCwyODIuNDQ0IDkxMS44OTI4LDI5OS4wMTQgIiBmaWxsPSJ0cmFuc3BhcmVudCIgaWQ9Ik5vdGlmaWNhdGlvbkRUTy10by1Ob3RpZmljYXRpb25NYXBwZXIiIHN0eWxlPSJzdHJva2U6IzE4MTgxODtzdHJva2Utd2lkdGg6MTtzdHJva2UtZGFzaGFycmF5OjcuMCw3LjA7Ii8+PHBvbHlnb24gZmlsbD0iIzE4MTgxOCIgcG9pbnRzPSI5MDguMTcsMzAzLjcxOTQsOTE2Ljg5MTIsMjk5LjE0MzIsOTExLjI3MjQsMjk5Ljc5ODIsOTEwLjYxNzMsMjk0LjE3OTQsOTA4LjE3LDMwMy43MTk0IiBzdHlsZT0ic3Ryb2tlOiMxODE4MTg7c3Ryb2tlLXdpZHRoOjE7Ii8+PHRleHQgZmlsbD0iIzAwMDAwMCIgZm9udC1mYW1pbHk9InNhbnMtc2VyaWYiIGZvbnQtc2l6ZT0iMTMiIGxlbmd0aEFkanVzdD0ic3BhY2luZyIgdGV4dExlbmd0aD0iNjYuNDc5IiB4PSI5NTQuNSIgeT0iMjQ0LjEwNDUiPkNvbnZlcnRpIGVuPC90ZXh0PjwvZz48IS0tbGluayBOb3RpZmljYXRpb24gdG8gTm90aWZpY2F0aW9uTWFwcGVyLS0+PGcgaWQ9ImxpbmtfTm90aWZpY2F0aW9uX05vdGlmaWNhdGlvbk1hcHBlciI+PHBhdGggY29kZUxpbmU9IjEwNCIgZD0iTTQ4Ni4zNCwxNTcuMDc5NCBDNTQyLjU4LDE3Ni4wODk0IDYxMi4zNCwyMDEuNjQ5NCA2NzIuNSwyMjkuNjA5NCBDNjk4LjM4LDI0MS42Mzk0IDc1Mi4yNTg5LDI3Mi44NDk0IDc5OS41MTg5LDMwMC44Njk0ICIgZmlsbD0idHJhbnNwYXJlbnQiIGlkPSJOb3RpZmljYXRpb24tdG8tTm90aWZpY2F0aW9uTWFwcGVyIiBzdHlsZT0ic3Ryb2tlOiMxODE4MTg7c3Ryb2tlLXdpZHRoOjE7c3Ryb2tlLWRhc2hhcnJheTo3LjAsNy4wOyIvPjxwb2x5Z29uIGZpbGw9IiMxODE4MTgiIHBvaW50cz0iODA0LjY4LDMwMy45Mjk0LDc5OC45Nzg0LDI5NS44OTg3LDgwMC4zNzkxLDMwMS4zNzk0LDc5NC44OTg0LDMwMi43ODAyLDgwNC42OCwzMDMuOTI5NCIgc3R5bGU9InN0cm9rZTojMTgxODE4O3N0cm9rZS13aWR0aDoxOyIvPjx0ZXh0IGZpbGw9IiMwMDAwMDAiIGZvbnQtZmFtaWx5PSJzYW5zLXNlcmlmIiBmb250LXNpemU9IjEzIiBsZW5ndGhBZGp1c3Q9InNwYWNpbmciIHRleHRMZW5ndGg9IjY2LjQ3OSIgeD0iNzA3LjUiIHk9IjI0NC4xMDQ1Ij5Db252ZXJ0aSBlbjwvdGV4dD48L2c+PCEtLWxpbmsgTm90aWZpY2F0aW9uTWFwcGVyIHRvIE5vdGlmaWNhdGlvbi0tPjxnIGlkPSJsaW5rX05vdGlmaWNhdGlvbk1hcHBlcl9Ob3RpZmljYXRpb24iPjxwYXRoIGNvZGVMaW5lPSIxMDUiIGQ9Ik04NDkuMjksMzAzLjg4OTQgQzgzMy4wNywyNzguOTQ5NCA4MDkuMiwyNDguMzE5NCA3ODAuNSwyMjkuNjA5NCBDNjkxLjI3LDE3MS40NTk0IDU3Ny4xODI1LDE0NS45Mzc3IDQ5MS45NTI1LDEzNC4wNTc3ICIgZmlsbD0idHJhbnNwYXJlbnQiIGlkPSJOb3RpZmljYXRpb25NYXBwZXItdG8tTm90aWZpY2F0aW9uIiBzdHlsZT0ic3Ryb2tlOiMxODE4MTg7c3Ryb2tlLXdpZHRoOjE7c3Ryb2tlLWRhc2hhcnJheTo3LjAsNy4wOyIvPjxwb2x5Z29uIGZpbGw9IiMxODE4MTgiIHBvaW50cz0iNDg2LjAxLDEzMy4yMjk0LDQ5NC4zNzE2LDEzOC40MzM2LDQ5MC45NjIxLDEzMy45MTk2LDQ5NS40NzYsMTMwLjUxMDIsNDg2LjAxLDEzMy4yMjk0IiBzdHlsZT0ic3Ryb2tlOiMxODE4MTg7c3Ryb2tlLXdpZHRoOjE7Ii8+PHRleHQgZmlsbD0iIzAwMDAwMCIgZm9udC1mYW1pbHk9InNhbnMtc2VyaWYiIGZvbnQtc2l6ZT0iMTMiIGxlbmd0aEFkanVzdD0ic3BhY2luZyIgdGV4dExlbmd0aD0iMTIzLjU4MjUiIHg9IjgwMy41IiB5PSIyNDQuMTA0NSI+Q3ImIzIzMztlIHVuZSBpbnN0YW5jZSBkZTwvdGV4dD48L2c+PCEtLWxpbmsgTm90aWZpY2F0aW9uIHRvIE5vdGlmaWNhdGlvblR5cGUtLT48ZyBpZD0ibGlua19Ob3RpZmljYXRpb25fTm90aWZpY2F0aW9uVHlwZSI+PHBhdGggY29kZUxpbmU9IjEwOCIgZD0iTTM2Mi40MSwxOTkuOTI5NCBDMzU2LjYxLDIyNC42ODk0IDM1MC4yMSwyNTIuMjk5NCAzNDQuNSwyNzcuNjA5NCBDMzI2LjA5LDM1OS4yNDk0IDMyNi40MiwzODAuODQ5NCAzMDQuNSw0NjEuNjA5NCBDMzAxLjg4LDQ3MS4yNzk0IDMwMC42MDcyLDQ3NS43OTQ0IDI5Ny40NzcyLDQ4NS41ODQ0ICIgZmlsbD0idHJhbnNwYXJlbnQiIGlkPSJOb3RpZmljYXRpb24tdG8tTm90aWZpY2F0aW9uVHlwZSIgc3R5bGU9InN0cm9rZTojMTgxODE4O3N0cm9rZS13aWR0aDoxOyIvPjxwb2x5Z29uIGZpbGw9IiMxODE4MTgiIHBvaW50cz0iMjk1LjY1LDQ5MS4yOTk0LDMwMi4yMDA4LDQ4My45NDUsMjk3LjE3MjYsNDg2LjUzNjksMjk0LjU4MDcsNDgxLjUwODcsMjk1LjY1LDQ5MS4yOTk0IiBzdHlsZT0ic3Ryb2tlOiMxODE4MTg7c3Ryb2tlLXdpZHRoOjE7Ii8+PHRleHQgZmlsbD0iIzAwMDAwMCIgZm9udC1mYW1pbHk9InNhbnMtc2VyaWYiIGZvbnQtc2l6ZT0iMTMiIGxlbmd0aEFkanVzdD0ic3BhY2luZyIgdGV4dExlbmd0aD0iMTc2LjMyNTIiIHg9IjM0NS41IiB5PSIzNTEuMTA0NSI+RCYjMjMzO2Zpbml0IGxlIHR5cGUgZGUgbGEgbm90aWZpY2F0aW9uPC90ZXh0PjwvZz48IS0tbGluayBOb3RpZmljYXRpb24gdG8gTm90aWZpY2F0aW9uU3RhdHVzLS0+PGcgaWQ9ImxpbmtfTm90aWZpY2F0aW9uX05vdGlmaWNhdGlvblN0YXR1cyI+PHBhdGggY29kZUxpbmU9IjEwOSIgZD0iTTQzOS4xNywxOTkuNzg5NCBDNDUzLjA1LDIxNi4xODk0IDQ2OC4yNiwyMzIuOTc5NCA0ODMuNSwyNDcuNjA5NCBDNTAwLjgxLDI2NC4yMjk0IDUxNi4xNTksMjc3LjA1MSA1MzUuMTk5LDI5MS41NzEgIiBmaWxsPSJ0cmFuc3BhcmVudCIgaWQ9Ik5vdGlmaWNhdGlvbi10by1Ob3RpZmljYXRpb25TdGF0dXMiIHN0eWxlPSJzdHJva2U6IzE4MTgxODtzdHJva2Utd2lkdGg6MTsiLz48cG9seWdvbiBmaWxsPSIjMTgxODE4IiBwb2ludHM9IjUzOS45NywyOTUuMjA5NCw1MzUuMjM5MSwyODYuNTcxMiw1MzUuOTk0MiwyOTIuMTc3NCw1MzAuMzg3OSwyOTIuOTMyNSw1MzkuOTcsMjk1LjIwOTQiIHN0eWxlPSJzdHJva2U6IzE4MTgxODtzdHJva2Utd2lkdGg6MTsiLz48dGV4dCBmaWxsPSIjMDAwMDAwIiBmb250LWZhbWlseT0ic2Fucy1zZXJpZiIgZm9udC1zaXplPSIxMyIgbGVuZ3RoQWRqdXN0PSJzcGFjaW5nIiB0ZXh0TGVuZ3RoPSIxODMuNTQ4OCIgeD0iNDg0LjUiIHk9IjI0NC4xMDQ1Ij5EJiMyMzM7ZmluaXQgbGUgc3RhdHV0IGRlIGxhIG5vdGlmaWNhdGlvbjwvdGV4dD48L2c+PCEtLWxpbmsgTm90aWZpY2F0aW9uVGVtcGxhdGUgdG8gTm90aWZpY2F0aW9uVHlwZS0tPjxnIGlkPSJsaW5rX05vdGlmaWNhdGlvblRlbXBsYXRlX05vdGlmaWNhdGlvblR5cGUiPjxwYXRoIGNvZGVMaW5lPSIxMTAiIGQ9Ik0xNDMuNzksNDEzLjY5OTQgQzE0MC4xNyw0MzAuMDM5NCAxNDAuMzEsNDQ2Ljk5OTQgMTQ4LjUsNDYxLjYwOTQgQzE2Mi40Nyw0ODYuNTI5NCAxODIuNDQzMSw1MDEuODU3MSAyMDcuMDUzMSw1MTQuMzg3MSAiIGZpbGw9InRyYW5zcGFyZW50IiBpZD0iTm90aWZpY2F0aW9uVGVtcGxhdGUtdG8tTm90aWZpY2F0aW9uVHlwZSIgc3R5bGU9InN0cm9rZTojMTgxODE4O3N0cm9rZS13aWR0aDoxOyIvPjxwb2x5Z29uIGZpbGw9IiMxODE4MTgiIHBvaW50cz0iMjEyLjQsNTE3LjEwOTQsMjA2LjE5NDYsNTA5LjQ2MTMsMjA3Ljk0NDMsNTE0Ljg0MDgsMjAyLjU2NDgsNTE2LjU5MDUsMjEyLjQsNTE3LjEwOTQiIHN0eWxlPSJzdHJva2U6IzE4MTgxODtzdHJva2Utd2lkdGg6MTsiLz48dGV4dCBmaWxsPSIjMDAwMDAwIiBmb250LWZhbWlseT0ic2Fucy1zZXJpZiIgZm9udC1zaXplPSIxMyIgbGVuZ3RoQWRqdXN0PSJzcGFjaW5nIiB0ZXh0TGVuZ3RoPSIxNTAuMzA2MiIgeD0iMTQ5LjUiIHk9IjQ1OC4xMDQ1Ij5EJiMyMzM7ZmluaXQgbGUgdHlwZSBkZSB0ZW1wbGF0ZTwvdGV4dD48L2c+PCEtLVNSQz1bdExSRFJqZjA0Qnh4QUtQUzg2ZzJzY2pMOFA1MDZZR1dLR1dGaUI0ZHhnUnNzanJUZXdBcXhuRVVtb19Nc1ZOUWlPczFnRWdmNXNtRnlfbERSbnljLVV3OTJ3dnY4WTEwMUlXcXJfYkVHSWd2eTdkQThiSVVIeEc4T1BiZV9pSHpQZmJOQTNWU0h4WTAyTVVYUDc2Q2k1eENGUXlGTG41SjJZN2Vpb3BXNmk5eTlfQVR2M3lvekRZWnFmQnY2ZHAzMG5FY1NNb1BOWm8wMy1PSlY4ZHEyQ1F3ZWNIZnUyWV9GU3l3azZ0d09lTmRZR1kxMXpNaEg3QVY0X2xDcWJRUTBXZVhIZ0xPWThQSUxfNm1KSDRxX1JKX002Y2NDbU5BRmxRYUM0dVp1dzVzQnVNM01HbnhrZXNCcXlMdURnVmRRaDZZdHhscndnUUp0dmFxNGRWSnZNSXNfNmZhZmlpN1VibVIzVHFlTEN3cXFOMkgyblBaeExEYlp5X2V3bmdiM0U4bzJSUTd5VmJqQ1pudms4TEN5dVloVjBUZmFhYzgtWVdzMlJTcjk2ZzJvWWlvTkxUY2Y1Xy1HUHdpVUVhcklMbE41WW5ES0hQRS1PZE9lREhTR1lRaXBvWFdNWEh1WHJqRXlnTGo0dEhZWFJRM1RYMjFKaXhRdDhRa2F1YkU2am1ESkN1QUpzVDJldG5ZcjRDMVdZaFFvVUNMaUw0SWhqY2lSbUhwR0ZtWWc3RmktSVFRdHpSRkVMVndJdnJuMTI3Z0RUY2s0ek1XZFBVcG9jcEN2RlVuTVg2ck9BZlJnVkNMSkxvTXZFMWVxdkhtcTVVLVlxYnJXTFlHTFEzaXZ5ZTFPY0otUXIza0NLcUtydWRTYmN0NlYzel9MUzJvZG4wYVdXT2hUaExPSlN4MlN2aVFBZWpRV1RCZTNvd3RpczNXbmlLWEcwZy0gLXhWV1p3MlhzMFBGcmx2TFBDSVdNMFNxX2NybWoyV2FyYVQ5U3ZCME8xZXA3ZnNSLU5hRVR2ZHdUZFFXTlBwc1BjNlN5OGNTa2FPVVlqQXIwY3Y2Q29JRUNyNkFLTW8tTk1uUXFnMXB6TGFjbURJQ3JMNnRSdVljejVuRGxRN1QwQ3liRXRBSDRiS1lxRWVqellIUEU1SnltLTZsS0xUZDcxNE83UWdLcHoxUnN3NkVsTlVCa3IxOWIydzlBN3lEQ3dtSWtFNENvZUxGaENVTGppNFpaVlZ2cGlfSV85TVdBOU9EekdLYm5RWWpTVk9DVDNWY21EMnFDNHBMTDVUNW1vMVNOMTFLdFZ6THhUVlk4U3JwaWs3b3FUMjZrZEZ4RGF0c0ZsTDh2R1h3N3VUM1VrcXEtT1F3c0w5Yl96a2VuaXo5ZmlxV1pCZ1RpMmtqd09UNVhzd3JPZmJ2UlV2cy1qcEU4bi1rdEF1YUN5cjRfT3NDT3NiQk1YYjk4dWlZSFUyMmhZZlhycl9sMUQ5SmtmNUtFdmtaX0lraEE0RHhxMWVHcEE1VzJlQlFrRHhsbFVFUXRGdExxY0tsRzdySU13c0l0a3pWYlZHX10tLT48L2c+PC9zdmc+" parent="1" vertex="1">
            <mxGeometry x="-10" width="2412" height="599" as="geometry" />
          </mxCell>
        </UserObject>
      </root>
    </mxGraphModel>
  </diagram>
</mxfile>
